<?xml version="1.0" encoding="UTF-8"?>
<svg version="1.1" xmlns="http://www.w3.org/2000/svg" width="778" height="320">
<path d="M0 0 C1.18783081 0.05208618 1.18783081 0.05208618 2.3996582 0.10522461 C9.34426418 0.5043399 15.49798199 2.44595726 22.0625 4.6875 C22.0625 5.3475 22.0625 6.0075 22.0625 6.6875 C24.7025 7.3475 27.3425 8.0075 30.0625 8.6875 C30.93059439 13.88923095 31.18765348 18.85728816 31.125 24.125 C31.12048828 24.85654297 31.11597656 25.58808594 31.11132812 26.34179688 C31.09968148 28.12373419 31.08175191 29.90562863 31.0625 31.6875 C28.61328125 30.8515625 28.61328125 30.8515625 26.0625 29.6875 C25.25 27.0625 25.25 27.0625 25.0625 24.6875 C23.5775 24.1925 23.5775 24.1925 22.0625 23.6875 C21.5 21.75 21.5 21.75 21.0625 19.6875 C19.70817309 18.33317309 18.3322269 17.00018414 16.9375 15.6875 C15.0625 13.6875 15.0625 13.6875 15.0625 11.6875 C14.03125 11.419375 13 11.15125 11.9375 10.875 C9.41620511 10.17324794 7.67665066 9.46316899 5.375 8.125 C-3.56100981 4.24710895 -14.208668 5.14523765 -23.19140625 8.5390625 C-27.70630207 10.64658503 -31.17250953 13.46036531 -34.9375 16.6875 C-35.5975 16.6875 -36.2575 16.6875 -36.9375 16.6875 C-37.2159375 17.41582031 -37.494375 18.14414063 -37.78125 18.89453125 C-38.85963657 21.49941774 -40.09510305 23.89893245 -41.4375 26.375 C-47.10818659 37.68291781 -47.42914086 50.61305478 -43.9375 62.6875 C-42.0712166 67.66690293 -39.69056105 72.14494927 -36.9375 76.6875 C-36.9375 77.3475 -36.9375 78.0075 -36.9375 78.6875 C-36.339375 78.955625 -35.74125 79.22375 -35.125 79.5 C-32.9375 80.6875 -32.9375 80.6875 -31.59375 82.0703125 C-24.13904149 89.34920242 -15.44436227 91.74855824 -5.375 91.875 C-0.80106972 91.80585919 3.56765608 91.52375003 8.0625 90.6875 C8.0625 90.0275 8.0625 89.3675 8.0625 88.6875 C10.0425 88.3575 12.0225 88.0275 14.0625 87.6875 C14.5575 86.2025 14.5575 86.2025 15.0625 84.6875 C16.78379497 83.06745767 18.61175478 81.64874214 20.46875 80.1875 C22.33094491 78.67233163 22.33094491 78.67233163 23.0625 75.6875 C23.7225 75.0275 24.3825 74.3675 25.0625 73.6875 C25.76187532 72.37102881 26.42979133 71.03727849 27.0625 69.6875 C27.3925 69.0275 27.7225 68.3675 28.0625 67.6875 C30.0425 68.1825 30.0425 68.1825 32.0625 68.6875 C32.3925 70.0075 32.7225 71.3275 33.0625 72.6875 C32.4025 72.6875 31.7425 72.6875 31.0625 72.6875 C31.0625 77.9675 31.0625 83.2475 31.0625 88.6875 C28.0925 90.3375 25.1225 91.9875 22.0625 93.6875 C22.0625 94.0175 22.0625 94.3475 22.0625 94.6875 C19.33128842 95.18806013 16.5996576 95.68603514 13.8671875 96.1796875 C11.93115235 96.53022311 9.99631378 96.88740992 8.0625 97.25 C0.50974389 98.3514436 -6.75420808 98.80251206 -14.375 98.375 C-15.06126465 98.34035645 -15.7475293 98.30571289 -16.45458984 98.27001953 C-20.09643563 98.02471386 -22.77895048 97.5056267 -25.9375 95.6875 C-27.92860401 95.30459538 -29.92850513 94.96145385 -31.9375 94.6875 C-31.9375 94.0275 -31.9375 93.3675 -31.9375 92.6875 C-32.824375 92.605 -33.71125 92.5225 -34.625 92.4375 C-38.49645267 91.56094468 -40.00699872 90.33209871 -42.9375 87.6875 C-43.55367187 87.18347656 -44.16984375 86.67945313 -44.8046875 86.16015625 C-48.56499212 83.07187394 -48.56499212 83.07187394 -49.9375 81.6875 C-49.9375 81.0275 -49.9375 80.3675 -49.9375 79.6875 C-51.2575 79.0275 -52.5775 78.3675 -53.9375 77.6875 C-53.9375 76.6975 -53.9375 75.7075 -53.9375 74.6875 C-54.9275 74.3575 -55.9175 74.0275 -56.9375 73.6875 C-56.9375 72.3675 -56.9375 71.0475 -56.9375 69.6875 C-57.5975 69.6875 -58.2575 69.6875 -58.9375 69.6875 C-60.3887573 64.71176068 -61.70118629 59.72106296 -62.9375 54.6875 C-62.2775 54.6875 -61.6175 54.6875 -60.9375 54.6875 C-61.06769531 53.67171875 -61.19789062 52.6559375 -61.33203125 51.609375 C-62.37054757 41.94834735 -61.51976928 35.48720821 -56.9375 26.6875 C-56.6075 25.6975 -56.2775 24.7075 -55.9375 23.6875 C-55.2775 23.6875 -54.6175 23.6875 -53.9375 23.6875 C-53.6075 22.3675 -53.2775 21.0475 -52.9375 19.6875 C-52.2775 19.6875 -51.6175 19.6875 -50.9375 19.6875 C-50.9375 19.0275 -50.9375 18.3675 -50.9375 17.6875 C-49.95899805 16.66645449 -48.95769573 15.6668879 -47.9375 14.6875 C-47.6075 14.0275 -47.2775 13.3675 -46.9375 12.6875 C-45.6175 12.6875 -44.2975 12.6875 -42.9375 12.6875 C-42.9375 12.0275 -42.9375 11.3675 -42.9375 10.6875 C-42.2775 10.6875 -41.6175 10.6875 -40.9375 10.6875 C-40.6075 9.6975 -40.2775 8.7075 -39.9375 7.6875 C-37.9575 7.3575 -35.9775 7.0275 -33.9375 6.6875 C-33.6075 5.6975 -33.2775 4.7075 -32.9375 3.6875 C-29.784132 2.98675156 -27.21025026 2.6875 -23.9375 2.6875 C-23.9375 2.0275 -23.9375 1.3675 -23.9375 0.6875 C-15.8972788 -0.165052 -8.06650775 -0.3963518 0 0 Z " fill="#151615" transform="translate(166.9375,112.3125)"/>
<path d="M0 0 C0.928125 0.144375 1.85625 0.28875 2.8125 0.4375 C3.534375 0.623125 4.25625 0.80875 5 1 C5.495 1.99 5.495 1.99 6 3 C6.928125 3.309375 6.928125 3.309375 7.875 3.625 C11.26714376 5.81991655 12.0182909 9.19678624 13 13 C13.1875 16 13.1875 16 13 18 C13.66 18.33 14.32 18.66 15 19 C15 31.87 15 44.74 15 58 C16.98 58.66 18.96 59.32 21 60 C20.67 60.99 20.34 61.98 20 63 C16.95866211 63.19572967 13.91723937 63.38183916 10.875 63.5625 C9.59109375 63.64661133 9.59109375 63.64661133 8.28125 63.73242188 C3.67818141 63.99798352 -0.45819546 64.00515346 -5 63 C-5 62.34 -5 61.68 -5 61 C-5.99 60.505 -5.99 60.505 -7 60 C-4.525 59.505 -4.525 59.505 -2 59 C0.18994659 52.85788417 0.16076259 47.34833832 0 40.875 C-0.11920745 32.34015262 0.19985617 24.37388336 2 16 C1.01 15.67 0.02 15.34 -1 15 C-1 14.01 -1 13.02 -1 12 C-1.99 11.67 -2.98 11.34 -4 11 C-4 10.34 -4 9.68 -4 9 C-12.71934501 8.60344646 -12.71934501 8.60344646 -21 11 C-21.33 11.66 -21.66 12.32 -22 13 C-22.66 13.309375 -23.32 13.61875 -24 13.9375 C-26.34608221 14.8891846 -26.34608221 14.8891846 -27 18 C-27.66 18.33 -28.32 18.66 -29 19 C-29 31.21 -29 43.42 -29 56 C-28.34 56 -27.68 56 -27 56 C-26.67 56.99 -26.34 57.98 -26 59 C-23.99983534 60.20882096 -23.99983534 60.20882096 -22 61 C-22.33 61.66 -22.66 62.32 -23 63 C-31.3272031 64.34877233 -39.66743683 64.10534001 -48 63 C-48 62.01 -48 61.02 -48 60 C-46.02 59.505 -46.02 59.505 -44 59 C-43.67 57.35 -43.34 55.7 -43 54 C-42.67 54 -42.34 54 -42 54 C-42 40.14 -42 26.28 -42 12 C-43.32 11.34 -44.64 10.68 -46 10 C-49 6.57142857 -49 6.57142857 -49 4 C-46.69 4 -44.38 4 -42 4 C-42 3.34 -42 2.68 -42 2 C-40.35 2 -38.7 2 -37 2 C-37 1.34 -37 0.68 -37 0 C-34.69 0 -32.38 0 -30 0 C-29.67 2.97 -29.34 5.94 -29 9 C-28.01 9 -27.02 9 -26 9 C-25.6596875 8.0409375 -25.6596875 8.0409375 -25.3125 7.0625 C-24 5 -24 5 -21.375 4.25 C-20.199375 4.12625 -20.199375 4.12625 -19 4 C-19 3.34 -19 2.68 -19 2 C-16.9620493 1.46481117 -14.91940991 0.94745907 -12.875 0.4375 C-11.73804688 0.14746094 -10.60109375 -0.14257812 -9.4296875 -0.44140625 C-5.90428986 -1.01558833 -3.45919828 -0.7774585 0 0 Z M1 54 C2 56 2 56 2 56 Z " fill="#030303" transform="translate(412,146)"/>
<path d="M0 0 C0.66 0 1.32 0 2 0 C3.14406398 2.28812797 3.10497623 3.49338811 3.06591797 6.03149414 C3.05128006 7.27903221 3.05128006 7.27903221 3.03634644 8.55177307 C3.01448776 9.90479774 3.01448776 9.90479774 2.9921875 11.28515625 C2.97465447 13.19726016 2.95774783 15.10936991 2.94140625 17.02148438 C2.91058123 20.03426284 2.87524381 23.04674864 2.82861328 26.05932617 C2.78594132 28.9679717 2.76272923 31.87628096 2.7421875 34.78515625 C2.72356659 35.67300308 2.70494568 36.56084991 2.6857605 37.4756012 C2.66291083 43.12309915 2.99423647 49.05525516 6 54 C8.03893318 54.80153036 8.03893318 54.80153036 10 55 C10 55.66 10 56.32 10 57 C12.08410658 56.91266027 14.16734669 56.80447722 16.25 56.6875 C17.41015625 56.62949219 18.5703125 56.57148438 19.765625 56.51171875 C23.93158476 55.85261159 25.76902488 54.32945313 28.5625 51.3125 C30 50 30 50 33 50 C32.505 47.03 32.505 47.03 32 44 C32.66 44 33.32 44 34 44 C34 43.01 34 42.02 34 41 C33.34 41 32.68 41 32 41 C31.78232358 32.03898756 31.95595455 23.7784452 34 15 C33.34 15 32.68 15 32 15 C32 14.34 32 13.68 32 13 C32.66 13 33.32 13 34 13 C31.82575883 10.49962266 30.26954202 9.56371414 27 9 C27 7.68 27 6.36 27 5 C28.41538717 4.66127487 29.83237963 4.32925376 31.25 4 C32.03890625 3.814375 32.8278125 3.62875 33.640625 3.4375 C36 3 36 3 40 3 C40 2.34 40 1.68 40 1 C41.65 0.67 43.3 0.34 45 0 C45 0.99 45 1.98 45 3 C45.66 3 46.32 3 47 3 C47 3.66 47 4.32 47 5 C46.34 5 45.68 5 45 5 C45.25136719 6.86205078 45.25136719 6.86205078 45.5078125 8.76171875 C46.03062988 13.96696199 46.04685985 19.10841188 45.9921875 24.33203125 C45.98037445 25.59876175 45.98037445 25.59876175 45.96832275 26.89108276 C45.93177604 30.43076856 45.88948755 33.97016342 45.82861328 37.50952148 C45.78626837 40.11706407 45.76285518 42.72423899 45.7421875 45.33203125 C45.72356659 46.12793167 45.70494568 46.92383209 45.6857605 47.74385071 C45.6646391 52.31848098 46.00883133 55.29190614 49 59 C51.08533633 59.87822312 51.08533633 59.87822312 53 60 C53 60.99 53 61.98 53 63 C45.63673974 65.10627539 39.32418831 65.4413961 32 63 C32 62.34 32 61.68 32 61 C32.66 60.67 33.32 60.34 34 60 C32.35 59.67 30.7 59.34 29 59 C29 59.66 29 60.32 29 61 C27.58398286 61.48108275 26.16715563 61.95978141 24.75 62.4375 C23.96109375 62.70433594 23.1721875 62.97117188 22.359375 63.24609375 C18.2897444 64.54648896 14.51721948 65.20689838 10.25 65.5625 C9.26515625 65.64628906 8.2803125 65.73007813 7.265625 65.81640625 C6.51796875 65.87699219 5.7703125 65.93757813 5 66 C5 65.34 5 64.68 5 64 C4.2575 63.855625 3.515 63.71125 2.75 63.5625 C1.38875 63.2840625 1.38875 63.2840625 0 63 C-0.721875 62.9175 -1.44375 62.835 -2.1875 62.75 C-4 62 -4 62 -5.0625 59.5 C-5.371875 58.675 -5.68125 57.85 -6 57 C-6.99 56.67 -7.98 56.34 -9 56 C-8.979375 55.0925 -8.95875 54.185 -8.9375 53.25 C-8.87391174 50.18703078 -8.87391174 50.18703078 -9.49681091 48.03179932 C-10.3341604 44.65071224 -10.12096578 41.19746602 -10.09765625 37.734375 C-10.0962413 36.94097717 -10.09482635 36.14757935 -10.09336853 35.33013916 C-10.08778415 32.80338728 -10.07523454 30.27672496 -10.0625 27.75 C-10.05748298 26.03385545 -10.05292043 24.31770951 -10.04882812 22.6015625 C-10.03781984 18.40100731 -10.02056596 14.20051883 -10 10 C-11.98 9.34 -13.96 8.68 -16 8 C-16 7.34 -16 6.68 -16 6 C-16.66 5.67 -17.32 5.34 -18 5 C-15.36 5 -12.72 5 -10 5 C-10 4.34 -10 3.68 -10 3 C-9.04287109 2.80083984 -9.04287109 2.80083984 -8.06640625 2.59765625 C-7.24011719 2.42105469 -6.41382813 2.24445313 -5.5625 2.0625 C-4.32693359 1.80146484 -4.32693359 1.80146484 -3.06640625 1.53515625 C-1.02338796 1.19247006 -1.02338796 1.19247006 0 0 Z " fill="#101010" transform="translate(303,145)"/>
<path d="M0 0 C1.16273438 0.26167969 2.32546875 0.52335938 3.5234375 0.79296875 C13.92269749 3.41958596 13.92269749 3.41958596 18 9 C18.99 9.33 19.98 9.66 21 10 C21.71247732 11.6476038 22.37400383 13.31763529 23 15 C23.48984375 15.60972656 23.9796875 16.21945313 24.484375 16.84765625 C28.5479545 22.61835807 28.39758482 30.89461021 27.4765625 37.65234375 C25.74828039 46.16625808 21.68749941 53.35277828 15 59 C7.00317844 63.41306078 -0.38986975 64.15564728 -9.375 64.0625 C-10.20644531 64.05798828 -11.03789062 64.05347656 -11.89453125 64.04882812 C-13.92971897 64.03713164 -15.96486923 64.01919935 -18 64 C-18 63.34 -18 62.68 -18 62 C-20.97 61.34 -23.94 60.68 -27 60 C-27 59.01 -27 58.02 -27 57 C-28.11375 56.7525 -29.2275 56.505 -30.375 56.25 C-34 55 -34 55 -35.5 53 C-36 51 -36 51 -35 49 C-35.99 49 -36.98 49 -38 49 C-38.33 47.02 -38.66 45.04 -39 43 C-39.66 43 -40.32 43 -41 43 C-40.979375 41.948125 -40.95875 40.89625 -40.9375 39.8125 C-40.86017631 36.1685509 -40.86017631 36.1685509 -41.625 33.375 C-42.09983155 30.36773349 -41.1628429 28.76175189 -40 26 C-40.33 25.01 -40.66 24.02 -41 23 C-39.92745123 20.48301368 -38.45196548 18.33194455 -37 16 C-36.34 16 -35.68 16 -35 16 C-34.34 14.02 -33.68 12.04 -33 10 C-32.34 10 -31.68 10 -31 10 C-30.67 9.01 -30.34 8.02 -30 7 C-29.01 7 -28.02 7 -27 7 C-27 6.34 -27 5.68 -27 5 C-25.35 4.67 -23.7 4.34 -22 4 C-22 3.34 -22 2.68 -22 2 C-14.37971616 -0.08468352 -7.77849656 -1.81498253 0 0 Z M-20.75 8.375 C-22.8098114 10.77811331 -23.65838315 11.92544831 -24 15 C-24.66 15 -25.32 15 -26 15 C-27.7041678 20.15946865 -28.22225605 24.4425333 -28.125 29.9375 C-28.11597656 30.62134766 -28.10695312 31.30519531 -28.09765625 32.00976562 C-28.07438958 33.67333287 -28.03853167 35.33671631 -28 37 C-27.34 37 -26.68 37 -26 37 C-26 38.98 -26 40.96 -26 43 C-25.34 43 -24.68 43 -24 43 C-23.9175 43.70125 -23.835 44.4025 -23.75 45.125 C-22.55481162 49.70655545 -19.7853618 54.08818323 -16 57 C-12.89992799 58.20049407 -12.89992799 58.20049407 -10 59 C-10 59.33 -10 59.66 -10 60 C-8.1128125 60.2784375 -8.1128125 60.2784375 -6.1875 60.5625 C-5.47980469 60.66691406 -4.77210938 60.77132812 -4.04296875 60.87890625 C-1.7974658 61.13904799 -1.7974658 61.13904799 1 60 C1 59.34 1 58.68 1 58 C1.763125 58.0825 2.52625 58.165 3.3125 58.25 C6.1447901 58.29752199 6.1447901 58.29752199 7.75 56 C8.1625 55.34 8.575 54.68 9 54 C9.33 54 9.66 54 10 54 C10.1546875 52.824375 10.1546875 52.824375 10.3125 51.625 C11 49 11 49 14 47 C14.16687448 44.58354218 14.16687448 44.58354218 14 42 C14.185625 41.278125 14.37125 40.55625 14.5625 39.8125 C15.22642103 37.91567768 15.22642103 37.91567768 14 36 C14.165 35.21625 14.33 34.4325 14.5 33.625 C15.0308787 30.83788685 14.77421202 29.6700389 14 27 C13.71382813 25.97132813 13.71382813 25.97132813 13.421875 24.921875 C11.74921089 19.51489101 9.66882946 14.38469862 6 10 C5.01 9.67 4.02 9.34 3 9 C2.46375 8.34 1.9275 7.68 1.375 7 C-4.87865672 1.73376276 -14.92479154 3.34413815 -20.75 8.375 Z " fill="#030303" transform="translate(252,146)"/>
<path d="M0 0 C0 0.66 0 1.32 0 2 C0.721875 2.04125 1.44375 2.0825 2.1875 2.125 C7.15193904 3.66949214 9.33279492 7.76443503 11.6875 12.125 C12.120625 13.07375 12.55375 14.0225 13 15 C13.391875 15.70125 13.78375 16.4025 14.1875 17.125 C15 19 15 19 15 23 C14.34 23 13.68 23 13 23 C13 23.99 13 24.98 13 26 C9.58088664 27.70955668 5.66764905 27.14146246 1.90625 27.1328125 C1.0037854 27.13376923 0.1013208 27.13472595 -0.82849121 27.13571167 C-2.73836334 27.13639279 -4.64823778 27.13454321 -6.55810547 27.13037109 C-9.48800843 27.12502189 -12.41775808 27.13031837 -15.34765625 27.13671875 C-17.20052117 27.13605796 -19.053386 27.13477677 -20.90625 27.1328125 C-22.22659241 27.13584885 -22.22659241 27.13584885 -23.5736084 27.13894653 C-29.7700834 27.1149583 -29.7700834 27.1149583 -32 26 C-32 26.66 -32 27.32 -32 28 C-31.01 28.33 -30.02 28.66 -29 29 C-29.66 29.66 -30.32 30.32 -31 31 C-31 31.99 -31 32.98 -31 34 C-30.34 34 -29.68 34 -29 34 C-28.83723958 36.01822917 -28.67447917 38.03645833 -28.51171875 40.0546875 C-28.12606964 42.39519216 -28.12606964 42.39519216 -25 44 C-24.67 44.680625 -24.34 45.36125 -24 46.0625 C-23.10301684 48.35342991 -23.10301684 48.35342991 -20 49 C-19.5875 49.495 -19.175 49.99 -18.75 50.5 C-16.11044635 52.76247456 -13.37729327 52.68138743 -10 53 C-10 53.66 -10 54.32 -10 55 C-7.91303753 54.60190889 -5.8304656 54.1807572 -3.75 53.75 C-2.00976562 53.40195313 -2.00976562 53.40195313 -0.234375 53.046875 C3.25296336 51.91812297 4.71218661 50.81074216 7 48 C7.495 47.01 7.495 47.01 8 46 C9.64363134 45.27840576 11.31050386 44.60648579 13 44 C13.92550505 46.49886364 14.04422814 47.82751024 13.375 50.4375 C10.86149846 55.12175287 8.35125996 57.57210101 3.25 59.1875 C2.1775 59.455625 1.105 59.72375 0 60 C-0.495 60.99 -0.495 60.99 -1 62 C-9.935327 64.5070342 -19.58004594 63.69463144 -28 60 C-28.75667969 59.70996094 -29.51335937 59.41992188 -30.29296875 59.12109375 C-32.40311113 58.22848485 -34.18683136 57.40150535 -36 56 C-37 52.75 -37 52.75 -37 50 C-38.32 49.67 -39.64 49.34 -41 49 C-41.12375 48.278125 -41.2475 47.55625 -41.375 46.8125 C-41.9904931 44.04278106 -42.88444374 41.6029646 -44 39 C-43.505 38.505 -43.505 38.505 -43 38 C-43.495 36.515 -43.495 36.515 -44 35 C-43.5625 32.8125 -43.5625 32.8125 -43 31 C-43.66 30.67 -44.32 30.34 -45 30 C-44.67 28.68 -44.34 27.36 -44 26 C-43.34 26 -42.68 26 -42 26 C-42.2475 25.13375 -42.495 24.2675 -42.75 23.375 C-43.07564538 18.97878738 -41.60306694 17.44523565 -39 14 C-38.67 13.01 -38.34 12.02 -38 11 C-37.34 11 -36.68 11 -36 11 C-36 10.01 -36 9.02 -36 8 C-34.36368108 6.95107762 -32.69514137 5.95093297 -31 5 C-30.67 4.34 -30.34 3.68 -30 3 C-27.66476864 1.85621321 -25.42839796 0.89817459 -23 0 C-21.2675 -0.6496875 -21.2675 -0.6496875 -19.5 -1.3125 C-13.1935016 -2.85158592 -6.30327547 -1.06696069 0 0 Z M-21 4 C-21.33 4.66 -21.66 5.32 -22 6 C-22.99 6.33 -23.98 6.66 -25 7 C-25 7.66 -25 8.32 -25 9 C-25.66 9 -26.32 9 -27 9 C-27.4803318 10.58298026 -27.95921612 12.16639978 -28.4375 13.75 C-28.70433594 14.63171875 -28.97117187 15.5134375 -29.24609375 16.421875 C-29.88483103 18.60615794 -30.45595065 20.79095435 -31 23 C-26.78248718 23.04946113 -22.56512832 23.08574827 -18.34741211 23.10986328 C-16.91281188 23.119917 -15.47823211 23.13356194 -14.04370117 23.15087891 C-11.98090562 23.17515549 -9.91838115 23.18648919 -7.85546875 23.1953125 C-6.61434326 23.20578613 -5.37321777 23.21625977 -4.09448242 23.22705078 C-0.83096691 23.2428807 -0.83096691 23.2428807 2 21 C1.505 17.04 1.505 17.04 1 13 C0.34 13 -0.32 13 -1 13 C-1.061875 12.443125 -1.12375 11.88625 -1.1875 11.3125 C-2.40052026 7.86005771 -4.16384296 6.29306314 -7 4 C-12.03498519 1.79330896 -15.94145616 1.53241764 -21 4 Z " fill="#161615" transform="translate(539,147)"/>
<path d="M0 0 C0 -0.33 0 -0.66 0 -1 C2.97 -1 5.94 -1 9 -1 C9 -0.34 9 0.32 9 1 C10.65 1 12.3 1 14 1 C14.33 1.66 14.66 2.32 15 3 C13.35 3.33 11.7 3.66 10 4 C10.11455681 5.91731918 10.24206258 7.8338675 10.375 9.75 C10.44460938 10.81734375 10.51421875 11.8846875 10.5859375 12.984375 C10.97729885 15.83466708 11.57294079 17.54655589 13 20 C13.66666667 21.66666667 14.33333333 23.33333333 15 25 C15.63531742 26.54602994 16.28208173 28.08738376 16.9375 29.625 C17.25589844 30.38039062 17.57429687 31.13578125 17.90234375 31.9140625 C18.89497241 34.06126398 18.89497241 34.06126398 20.62890625 35.5859375 C22 37 22 37 22 40 C22.99 40.495 22.99 40.495 24 41 C23.67 41.99 23.34 42.98 23 44 C23.99 44.33 24.98 44.66 26 45 C26.8441938 41.02022924 27.44687265 37.02992782 28 33 C28.99 32.67 29.98 32.34 31 32 C31.66 28.7 32.32 25.4 33 22 C33.66 22 34.32 22 35 22 C35.144375 21.2575 35.28875 20.515 35.4375 19.75 C35.90187492 17.47972261 36.41863569 15.24240521 37 13 C37.66 13 38.32 13 39 13 C39 10.69 39 8.38 39 6 C38.01 5.67 37.02 5.34 36 5 C36 4.34 36 3.68 36 3 C34.68 3 33.36 3 32 3 C32 2.34 32 1.68 32 1 C33.0725 0.855625 34.145 0.71125 35.25 0.5625 C38.72568202 0.13858189 38.72568202 0.13858189 40.90625 -0.59375 C43.59367712 -1.11519108 45.58821369 -0.65789957 48.25 -0.0625 C49.14203125 0.13214844 50.0340625 0.32679688 50.953125 0.52734375 C51.62859375 0.68332031 52.3040625 0.83929688 53 1 C53 1.66 53 2.32 53 3 C52.38640625 3.24492187 51.7728125 3.48984375 51.140625 3.7421875 C48.57364433 5.25052285 47.96142096 6.44256788 46.75 9.125 C46.41484375 9.84945312 46.0796875 10.57390625 45.734375 11.3203125 C45.49203125 11.87460938 45.2496875 12.42890625 45 13 C44.34 13 43.68 13 43 13 C42.88269531 13.69480469 42.76539063 14.38960937 42.64453125 15.10546875 C40.95518456 22.69217114 37.63883483 29.96905068 34.0390625 36.83203125 C32.15346929 40.76625769 30.68306873 44.86827264 29.1484375 48.94921875 C28.42007724 50.88408052 27.67347272 52.81225113 26.90234375 54.73046875 C25.95115536 57.0367201 25.95115536 57.0367201 25.1875 59.625 C23.44812249 64.56849396 21.23126213 69.26177381 19 74 C18.57203125 74.92167969 18.1440625 75.84335938 17.703125 76.79296875 C14.82835723 82.79981375 12.68794913 86.6062486 6.625 89.75 C3.12052403 90.95843999 0.66512083 91.26817957 -3 91 C-5.5059761 84.51394422 -5.5059761 84.51394422 -4 81 C-3.01 80.01 -3.01 80.01 -2 79 C-0.9275 79.020625 0.145 79.04125 1.25 79.0625 C5.49481384 78.9917531 7.48485721 78.34342853 11 76 C15.04509466 71.26146054 16.45734235 65.91352098 18 60 C16.515 59.505 16.515 59.505 15 59 C15 57.68 15 56.36 15 55 C14.484375 54.505 13.96875 54.01 13.4375 53.5 C12.963125 53.005 12.48875 52.51 12 52 C12.3125 49.8125 12.3125 49.8125 13 48 C12.34 48 11.68 48 11 48 C10.37158203 46.50726563 10.37158203 46.50726563 9.73046875 44.984375 C8.59887754 42.34199976 7.41632306 39.73358773 6.17578125 37.140625 C5.86962891 36.49996094 5.56347656 35.85929687 5.24804688 35.19921875 C4.61605744 33.88246415 3.98054785 32.56739417 3.34179688 31.25390625 C1.9451772 28.31772928 1 26.29394835 1 23 C0.34 22.67 -0.32 22.34 -1 22 C-2.06577716 19.94953741 -3.05443954 17.85859982 -4 15.75 C-4.515625 14.61046875 -5.03125 13.4709375 -5.5625 12.296875 C-6.44877904 10.2642133 -7.29006272 8.21038482 -8.0546875 6.12890625 C-8.52261719 5.07509766 -8.52261719 5.07509766 -9 4 C-11.04105639 3.11306697 -11.04105639 3.11306697 -13 3 C-12.67 2.01 -12.34 1.02 -12 0 C-7.6835078 -0.76173392 -4.25566547 -1.16063604 0 0 Z " fill="#0B0B0A" transform="translate(635,147)"/>
<path d="M0 0 C1.051875 0.53625 2.10375 1.0725 3.1875 1.625 C6 4 6 4 6.4375 7.875 C6.17589434 11.28225415 5.67022117 14.64889417 5 18 C4.34 18 3.68 18 3 18 C3 17.34 3 16.68 3 16 C2.34 16 1.68 16 1 16 C1 15.34 1 14.68 1 14 C0.34 14 -0.32 14 -1 14 C-1 12.35 -1 10.7 -1 9 C-1.9590625 8.8453125 -1.9590625 8.8453125 -2.9375 8.6875 C-3.618125 8.460625 -4.29875 8.23375 -5 8 C-5.495 6.515 -5.495 6.515 -6 5 C-10.84231215 2.17531791 -14.43744661 1.56334504 -19.9765625 2.4140625 C-22.85070393 3.24634284 -24.30576675 4.56914359 -26 7 C-26 7.66 -26 8.32 -26 9 C-26.66 9 -27.32 9 -28 9 C-28 9.66 -28 10.32 -28 11 C-27.34 11 -26.68 11 -26 11 C-26 12.65 -26 14.3 -26 16 C-25.195625 16.268125 -24.39125 16.53625 -23.5625 16.8125 C-22.716875 17.204375 -21.87125 17.59625 -21 18 C-20.67 18.99 -20.34 19.98 -20 21 C-17.36 21.33 -14.72 21.66 -12 22 C-12 22.66 -12 23.32 -12 24 C-11.37351562 24.04898438 -10.74703125 24.09796875 -10.1015625 24.1484375 C-9.28429687 24.22320312 -8.46703125 24.29796875 -7.625 24.375 C-6.81289063 24.44460937 -6.00078125 24.51421875 -5.1640625 24.5859375 C-2.18894672 25.15518348 -1.10747835 26.89252165 1 29 C3.06874034 29.6425235 3.06874034 29.6425235 5 30 C5 31.32 5 32.64 5 34 C6.32 34.33 7.64 34.66 9 35 C8.505 35.99 8.505 35.99 8 37 C8.99 37.495 8.99 37.495 10 38 C10.8125 41.375 10.8125 41.375 11 45 C9.5625 46.9375 9.5625 46.9375 8 48 C8.66 48 9.32 48 10 48 C9.67 48.99 9.34 49.98 9 51 C8.34 51 7.68 51 7 51 C6.7525 51.763125 6.505 52.52625 6.25 53.3125 C4.87869328 56.26080945 3.7648921 57.35834532 1 59 C0.34 59 -0.32 59 -1 59 C-1 59.66 -1 60.32 -1 61 C-9.99816758 62.71393668 -25.34859148 64.6657785 -33.3125 59.5 C-33.869375 59.005 -34.42625 58.51 -35 58 C-37.14733927 57.29485154 -37.14733927 57.29485154 -39 57 C-39 55.68 -39 54.36 -39 53 C-38.34 53 -37.68 53 -37 53 C-37 51.35 -37 49.7 -37 48 C-37.66 48 -38.32 48 -39 48 C-39 47.34 -39 46.68 -39 46 C-38.34 46 -37.68 46 -37 46 C-37 44.35 -37 42.7 -37 41 C-35.68 41 -34.36 41 -33 41 C-33 42.65 -33 44.3 -33 46 C-32.01 46.33 -31.02 46.66 -30 47 C-30 47.99 -30 48.98 -30 50 C-28.68 50.66 -27.36 51.32 -26 52 C-26 52.66 -26 53.32 -26 54 C-20.59246149 56.74668623 -16.20797054 58.81992064 -10 58 C-6.57365272 56.70703876 -4.58923385 55.93741749 -2.625 52.8125 C-2.41875 52.214375 -2.2125 51.61625 -2 51 C-1.34 51 -0.68 51 0 51 C-0.34444881 48.52733235 -0.34444881 48.52733235 -1 46 C-1.99 45.505 -1.99 45.505 -3 45 C-3.5259375 43.8553125 -3.5259375 43.8553125 -4.0625 42.6875 C-8.05559305 37.14869352 -15.6155285 35.63007783 -22 34 C-22 33.34 -22 32.68 -22 32 C-25.3 31.34 -28.6 30.68 -32 30 C-32.33 28.35 -32.66 26.7 -33 25 C-33.639375 24.855625 -34.27875 24.71125 -34.9375 24.5625 C-37 24 -37 24 -38 23 C-39.19565217 15.58695652 -39.19565217 15.58695652 -38 12 C-37.34 12 -36.68 12 -36 12 C-35.67 9.69 -35.34 7.38 -35 5 C-34.21625 4.7525 -33.4325 4.505 -32.625 4.25 C-29.86559708 3.28849473 -29.86559708 3.28849473 -29.1328125 1.00390625 C-28 -1 -28 -1 -25.890625 -1.86328125 C-17.76526218 -3.24555451 -7.13127801 -4.75418534 0 0 Z M-37 18 C-36 20 -36 20 -36 20 Z " fill="#0F0F0F" transform="translate(478,148)"/>
<path d="M0 0 C1.32 1.32 2.64 2.64 4 4 C3.67 4.66 3.34 5.32 3 6 C2.90019674 9.07017411 2.86024826 12.11710988 2.8671875 15.1875 C2.86623077 16.11860596 2.86527405 17.04971191 2.86428833 18.0090332 C2.86360606 19.99300198 2.86546361 21.97697297 2.86962891 23.9609375 C2.87488043 26.93234611 2.8697365 29.90359674 2.86328125 32.875 C2.85988159 43.3417992 3.11533908 53.73978982 3.77294922 64.18554688 C4.04243378 68.71288753 4.15076153 73.21597069 4.125 77.75 C4.13080078 78.84054688 4.13080078 78.84054688 4.13671875 79.953125 C4.12925509 84.07306527 3.80065249 87.95861123 3 92 C3.61875 92.309375 4.2375 92.61875 4.875 92.9375 C6.25 93.625 7.625 94.3125 9 95 C8.67 95.99 8.34 96.98 8 98 C4.77138267 98.19789024 1.54210273 98.38146345 -1.6875 98.5625 C-3.05551758 98.64661133 -3.05551758 98.64661133 -4.45117188 98.73242188 C-5.78051758 98.80493164 -5.78051758 98.80493164 -7.13671875 98.87890625 C-8.35427856 98.94960327 -8.35427856 98.94960327 -9.59643555 99.02172852 C-12.1789485 98.99838228 -14.48849909 98.5804792 -17 98 C-17 97.01 -17 96.02 -17 95 C-16.195625 94.7525 -15.39125 94.505 -14.5625 94.25 C-11.92152802 93.3137734 -11.92152802 93.3137734 -11.34693909 91.40350342 C-10.86033272 88.03242153 -10.86961024 84.69154982 -10.88647461 81.29394531 C-10.88632858 80.52282913 -10.88618256 79.75171295 -10.8860321 78.95722961 C-10.88672751 76.4141659 -10.89450251 73.87117588 -10.90234375 71.328125 C-10.90420925 69.56264282 -10.90563253 67.79716013 -10.90663147 66.03167725 C-10.91044625 61.38908454 -10.92026768 56.7465232 -10.93133545 52.10394287 C-10.9415719 47.36487248 -10.94613388 42.62579701 -10.95117188 37.88671875 C-10.96189087 28.59113206 -10.97895483 19.29556864 -11 10 C-12.98 9.34 -14.96 8.68 -17 8 C-17 6.68 -17 5.36 -17 4 C-16.01 3.67 -15.02 3.34 -14 3 C-13.67 3.33 -13.34 3.66 -13 4 C-12.154375 3.71125 -11.30875 3.4225 -10.4375 3.125 C-6.97638959 1.99227296 -3.50627443 0.98175684 0 0 Z " fill="#161616" transform="translate(578,111)"/>
<path d="M0 0 C1.18817968 3.73310433 1.11362739 7.27491645 1.09765625 11.171875 C1.0962413 11.8542926 1.09482635 12.53671021 1.09336853 13.23980713 C1.08779084 15.40991684 1.07524254 17.5799217 1.0625 19.75 C1.05748211 21.22525892 1.05291971 22.70051947 1.04882812 24.17578125 C1.03782875 27.78388798 1.02057953 31.39193375 1 35 C1.66 35 2.32 35 3 35 C3 37.31 3 39.62 3 42 C2.34 42 1.68 42 1 42 C1.33 40.35 1.66 38.7 2 37 C1.34 37 0.68 37 0 37 C0.25561323 39.3431213 0.59270772 41.67843403 1 44 C1.66 44.33 2.32 44.66 3 45 C1.515 45.495 1.515 45.495 0 46 C0.14238837 48.04190981 0.28907028 50.08352045 0.4375 52.125 C0.51871094 53.26195312 0.59992187 54.39890625 0.68359375 55.5703125 C0.97730965 58.7540478 1.43124313 61.85510907 2 65 C1.34 65 0.68 65 0 65 C0.2475 66.6396875 0.2475 66.6396875 0.5 68.3125 C1.26398787 74.424403 1.9651558 81.10453259 0 87 C0.66 87 1.32 87 2 87 C2.33 89.31 2.66 91.62 3 94 C4.32 94.33 5.64 94.66 7 95 C7 95.99 7 96.98 7 98 C1.39194023 99.0162256 -3.76497252 98.96017114 -9.4375 98.5625 C-10.26443359 98.51029297 -11.09136719 98.45808594 -11.94335938 98.40429688 C-13.96265478 98.27590237 -15.98139629 98.13884576 -18 98 C-18 97.01 -18 96.02 -18 95 C-17.01 95 -16.02 95 -15 95 C-15 94.34 -15 93.68 -15 93 C-13.515 92.505 -13.515 92.505 -12 92 C-11.8610252 81.63855165 -11.75439203 71.2773247 -11.68912697 60.91513443 C-11.65780378 56.10357005 -11.61531344 51.2926429 -11.54736328 46.48144531 C-11.48220517 41.83892298 -11.4463014 37.19701378 -11.43073654 32.55406952 C-11.41964372 30.78214614 -11.39798141 29.01025662 -11.36561966 27.23859406 C-11.32210057 24.7576072 -11.31606355 22.27915823 -11.31884766 19.79785156 C-11.297276 19.06417358 -11.27570435 18.33049561 -11.253479 17.57458496 C-11.21688272 15.255392 -11.21688272 15.255392 -12 12 C-14.96415671 9.74495124 -14.96415671 9.74495124 -18 8 C-18 6.68 -18 5.36 -18 4 C-14.62182575 3.15545644 -12.32534757 2.89155081 -9 4 C-8.67 3.34 -8.34 2.68 -8 2 C-2.77777778 0 -2.77777778 0 0 0 Z " fill="#151616" transform="translate(612,111)"/>
<path d="M0 0 C0.99 0.33 1.98 0.66 3 1 C3 1.66 3 2.32 3 3 C2.01 3.2475 1.02 3.495 0 3.75 C-3.64194631 4.77475817 -6.79179318 6.36477114 -10.1328125 8.11328125 C-12.37908244 9.18002451 -14.53725513 9.69215689 -17 10 C-16.67 9.01 -16.34 8.02 -16 7 C-14.02 6.67 -12.04 6.34 -10 6 C-9.67 5.01 -9.34 4.02 -9 3 C-5.846632 2.29925156 -3.27275026 2 0 2 C0 1.34 0 0.68 0 0 Z M-19 10 C-18.34 10 -17.68 10 -17 10 C-18.13804514 13.41413542 -18.755089 13.68220643 -21.5625 15.6875 C-28.44175833 21.51127646 -33.86055815 31.88785303 -35 40.875 C-35.03403719 42.24957865 -35.03365282 43.62541188 -35 45 C-35.03480469 45.81855469 -35.06960937 46.63710937 -35.10546875 47.48046875 C-35.37216101 55.87492502 -33.49368841 62.38682734 -29.90234375 69.921875 C-29.02764509 71.93633252 -28.46787412 73.8583906 -28 76 C-27.34 76 -26.68 76 -26 76 C-23.375 78.375 -23.375 78.375 -21 81 C-21 81.66 -21 82.32 -21 83 C-20.01 83 -19.02 83 -18 83 C-17.54753906 83.61230469 -17.09507813 84.22460938 -16.62890625 84.85546875 C-14.63710729 87.47776522 -12.98965348 88.14827651 -9.9375 89.3125 C-9.05964844 89.65925781 -8.18179688 90.00601563 -7.27734375 90.36328125 C-4.99359165 91.27660087 -4.99359165 91.27660087 -3 90 C-3.825 89.21625 -4.65 88.4325 -5.5 87.625 C-8 85 -8 85 -8 83 C-5.53996569 83.8729154 -3.27077053 84.83178584 -1.05078125 86.2109375 C4.97285364 89.95272865 9.96023045 90.86441925 17 91 C18.10408203 91.04060547 18.10408203 91.04060547 19.23046875 91.08203125 C23.59681682 91.17493227 27.71018548 90.71496909 32 90 C32 89.34 32 88.68 32 88 C33.98 87.67 35.96 87.34 38 87 C38.495 85.515 38.495 85.515 39 84 C40.72129497 82.37995767 42.54925478 80.96124214 44.40625 79.5 C46.26844491 77.98483163 46.26844491 77.98483163 47 75 C47.99 74.01 47.99 74.01 49 73 C49.69937532 71.68352881 50.36729133 70.34977849 51 69 C51.495 68.01 51.495 68.01 52 67 C53.98 67.495 53.98 67.495 56 68 C56.495 69.98 56.495 69.98 57 72 C56.34 72 55.68 72 55 72 C55 77.28 55 82.56 55 88 C52.03 89.65 49.06 91.3 46 93 C46 93.33 46 93.66 46 94 C43.26878842 94.50056013 40.5371576 94.99853514 37.8046875 95.4921875 C35.86865235 95.84272311 33.93381378 96.19990992 32 96.5625 C24.44724389 97.6639436 17.18329192 98.11501206 9.5625 97.6875 C8.87623535 97.65285645 8.1899707 97.61821289 7.48291016 97.58251953 C3.84106437 97.33721386 1.15854952 96.8181267 -2 95 C-3.99110401 94.61709538 -5.99100513 94.27395385 -8 94 C-8 93.34 -8 92.68 -8 92 C-8.886875 91.9175 -9.77375 91.835 -10.6875 91.75 C-14.55895267 90.87344468 -16.06949872 89.64459871 -19 87 C-19.61617187 86.49597656 -20.23234375 85.99195313 -20.8671875 85.47265625 C-24.62749212 82.38437394 -24.62749212 82.38437394 -26 81 C-26 80.34 -26 79.68 -26 79 C-27.32 78.34 -28.64 77.68 -30 77 C-30 76.01 -30 75.02 -30 74 C-30.99 73.67 -31.98 73.34 -33 73 C-33 71.68 -33 70.36 -33 69 C-33.66 69 -34.32 69 -35 69 C-36.4512573 64.02426068 -37.76368629 59.03356296 -39 54 C-38.34 54 -37.68 54 -37 54 C-37.13019531 52.98421875 -37.26039062 51.9684375 -37.39453125 50.921875 C-38.43304757 41.26084735 -37.58226928 34.79970821 -33 26 C-32.67 25.01 -32.34 24.02 -32 23 C-31.34 23 -30.68 23 -30 23 C-29.67 21.68 -29.34 20.36 -29 19 C-28.34 19 -27.68 19 -27 19 C-27 18.34 -27 17.68 -27 17 C-26.02149805 15.97895449 -25.02019573 14.9793879 -24 14 C-23.67 13.34 -23.34 12.68 -23 12 C-21.68 12 -20.36 12 -19 12 C-19 11.34 -19 10.68 -19 10 Z " fill="#151414" transform="translate(143,113)"/>
<path d="M0 0 C0.33 0.66 0.66 1.32 1 2 C1.61875 2.20625 2.2375 2.4125 2.875 2.625 C6.26714376 4.81991655 7.0182909 8.19678624 8 12 C8.1875 15 8.1875 15 8 17 C8.66 17.33 9.32 17.66 10 18 C10.0494731 23.33852794 10.08575425 28.67692214 10.10986328 34.015625 C10.11991491 35.83140386 10.13355828 37.64716656 10.15087891 39.46289062 C10.17516406 42.07425935 10.18649148 44.68541387 10.1953125 47.296875 C10.20563507 48.10743347 10.21595764 48.91799194 10.22659302 49.75311279 C10.22743142 53.97384958 9.93328814 56.13342373 8 60 C4.04 60 0.08 60 -4 60 C-3.34 58.35 -2.68 56.7 -2 55 C-1.69922816 52.96903908 -1.69922816 52.96903908 -1.7253418 50.94750977 C-1.71580978 50.18644424 -1.70627777 49.42537872 -1.69645691 48.64125061 C-1.69736832 47.83280197 -1.69827972 47.02435333 -1.69921875 46.19140625 C-1.69493362 45.34706528 -1.6906485 44.5027243 -1.68623352 43.63279724 C-1.6805054 41.85180557 -1.67997875 40.0707905 -1.68432617 38.28979492 C-1.68748551 35.57494948 -1.66401082 32.86119521 -1.63867188 30.14648438 C-1.63639855 28.4114597 -1.63569554 26.67643211 -1.63671875 24.94140625 C-1.627509 24.13498184 -1.61829926 23.32855743 -1.60881042 22.49769592 C-1.64876358 17.59579589 -2.29955753 14.25042191 -5 10 C-8.81949658 6.62463093 -11.69648176 5.46829502 -16.83203125 5.7265625 C-20.62094442 6.20444344 -24.30624699 7.04236033 -28 8 C-23.88592115 2.95693561 -20.33796831 1.91148039 -14 1 C-13.29101562 0.88914063 -12.58203125 0.77828125 -11.8515625 0.6640625 C-7.88226903 0.10136572 -4.0048109 -0.10012027 0 0 Z " fill="#161616" transform="translate(417,147)"/>
<path d="M0 0 C1.32 1.32 2.64 2.64 4 4 C3.67 4.66 3.34 5.32 3 6 C2.90019674 9.07017411 2.86024826 12.11710988 2.8671875 15.1875 C2.86623077 16.11860596 2.86527405 17.04971191 2.86428833 18.0090332 C2.86360606 19.99300198 2.86546361 21.97697297 2.86962891 23.9609375 C2.87488043 26.93234611 2.8697365 29.90359674 2.86328125 32.875 C2.85988159 43.3417992 3.11533908 53.73978982 3.77294922 64.18554688 C4.04243378 68.71288753 4.15076153 73.21597069 4.125 77.75 C4.13080078 78.84054688 4.13080078 78.84054688 4.13671875 79.953125 C4.12925509 84.07306527 3.80065249 87.95861123 3 92 C3.61875 92.309375 4.2375 92.61875 4.875 92.9375 C6.25 93.625 7.625 94.3125 9 95 C8.67 95.99 8.34 96.98 8 98 C4.77138267 98.19789024 1.54210273 98.38146345 -1.6875 98.5625 C-3.05551758 98.64661133 -3.05551758 98.64661133 -4.45117188 98.73242188 C-5.78051758 98.80493164 -5.78051758 98.80493164 -7.13671875 98.87890625 C-8.35427856 98.94960327 -8.35427856 98.94960327 -9.59643555 99.02172852 C-12.1789485 98.99838228 -14.48849909 98.5804792 -17 98 C-17 97.01 -17 96.02 -17 95 C-16.195625 94.7525 -15.39125 94.505 -14.5625 94.25 C-11.92152802 93.3137734 -11.92152802 93.3137734 -11.34693909 91.40350342 C-10.86033272 88.03242153 -10.86961024 84.69154982 -10.88647461 81.29394531 C-10.88632858 80.52282913 -10.88618256 79.75171295 -10.8860321 78.95722961 C-10.88672751 76.4141659 -10.89450251 73.87117588 -10.90234375 71.328125 C-10.90420925 69.56264282 -10.90563253 67.79716013 -10.90663147 66.03167725 C-10.91044625 61.38908454 -10.92026768 56.7465232 -10.93133545 52.10394287 C-10.9415719 47.36487248 -10.94613388 42.62579701 -10.95117188 37.88671875 C-10.96189087 28.59113206 -10.97895483 19.29556864 -11 10 C-12.98 9.34 -14.96 8.68 -17 8 C-17 6.68 -17 5.36 -17 4 C-16.01 3.67 -15.02 3.34 -14 3 C-13.67 3.33 -13.34 3.66 -13 4 C-12.154375 3.71125 -11.30875 3.4225 -10.4375 3.125 C-6.97638959 1.99227296 -3.50627443 0.98175684 0 0 Z M-2 2 C-4.35096976 2.9578025 -6.68351201 3.96157435 -9 5 C-10.32276056 5.37308631 -11.65232077 5.73046415 -13 6 C-12.67 6.99 -12.34 7.98 -12 9 C-11.34 9 -10.68 9 -10 9 C-8.79007075 12.62978776 -8.86029727 15.95040783 -8.87060547 19.72851562 C-8.86885315 20.51417404 -8.86710083 21.29983246 -8.86529541 22.10929871 C-8.86089142 24.70830489 -8.86380979 27.30724311 -8.8671875 29.90625 C-8.86651404 31.71081556 -8.86554367 33.51538104 -8.86428833 35.31994629 C-8.86281333 39.10279199 -8.8649596 42.88561408 -8.86962891 46.66845703 C-8.87532607 51.52091602 -8.87204602 56.37331971 -8.86605644 61.22577667 C-8.86244552 64.95233579 -8.86359187 68.67888177 -8.86618423 72.40544128 C-8.86685203 74.19483954 -8.86603021 75.98423899 -8.86370468 77.77363586 C-8.86116949 80.27295093 -8.86503105 82.77217602 -8.87060547 85.27148438 C-8.86858124 86.01339523 -8.86655701 86.75530609 -8.86447144 87.5196991 C-8.87731198 90.62227187 -9.01089061 93.03267182 -10 96 C-6.04 96 -2.08 96 2 96 C1.84152588 94.5771167 1.68305176 93.1542334 1.51977539 91.68823242 C0.74671909 83.1362492 0.76570402 74.56859193 0.68359375 65.98828125 C0.66298308 64.16553826 0.64198566 62.34279961 0.62062073 60.52006531 C0.56582421 55.7576146 0.51623061 50.99512385 0.46777344 46.23260498 C0.41724563 41.35881043 0.36172401 36.48507294 0.30664062 31.61132812 C0.19957914 22.07426767 0.09802205 12.53715735 0 3 C-0.66 2.67 -1.32 2.34 -2 2 Z " fill="#020202" transform="translate(578,111)"/>
<path d="M0 0 C-0.78375 0.86625 -1.5675 1.7325 -2.375 2.625 C-4.83386728 5.55056447 -6.02450104 8.27536762 -7 12 C-7.66 12 -8.32 12 -9 12 C-9.38834439 24.66592674 -9.38834439 24.66592674 -7 37 C-6.01 37 -5.02 37 -4 37 C-3.731875 37.721875 -3.46375 38.44375 -3.1875 39.1875 C-1.3642926 43.50562279 0.05272694 46.36848463 4 49 C5.1875 51.625 5.1875 51.625 6 54 C3.39417629 54.93065133 2.35801776 55.14917407 -0.25 54.0625 C-1.11625 53.5365625 -1.11625 53.5365625 -2 53 C-2 52.34 -2 51.68 -2 51 C-3.546875 51.0928125 -3.546875 51.0928125 -5.125 51.1875 C-9.28152667 50.98637774 -11.52307902 50.23516349 -15 48 C-15.495 46.515 -15.495 46.515 -16 45 C-15.67 44.34 -15.34 43.68 -15 43 C-15.99 43 -16.98 43 -18 43 C-18.33 41.02 -18.66 39.04 -19 37 C-19.66 37 -20.32 37 -21 37 C-20.979375 35.948125 -20.95875 34.89625 -20.9375 33.8125 C-20.86017631 30.1685509 -20.86017631 30.1685509 -21.625 27.375 C-22.43717405 22.23123102 -18.89240186 18.07262484 -16.2265625 13.91796875 C-15.25963585 12.4059911 -14.3395635 10.86404922 -13.4375 9.3125 C-11.80242095 6.68215544 -10.05384302 4.31885502 -8 2 C-7.34 2 -6.68 2 -6 2 C-6 1.34 -6 0.68 -6 0 C-2.25 -1.125 -2.25 -1.125 0 0 Z " fill="#141414" transform="translate(232,152)"/>
<path d="M0 0 C1.5099869 3.01997379 1.08004761 6.12231747 1.02734375 9.4296875 C1.0146744 10.96353922 1.00231521 12.49739353 0.99023438 14.03125 C0.9656518 16.43790863 0.93793034 18.84443021 0.90405273 21.25097656 C0.06730873 37.74382656 0.06730873 37.74382656 5 53 C7.86711888 53.92252193 7.86711888 53.92252193 11.125 54.25 C12.22070312 54.39953125 13.31640625 54.5490625 14.4453125 54.703125 C15.70988281 54.85007812 15.70988281 54.85007812 17 55 C17.33 55.99 17.66 56.98 18 58 C11.86753722 60.39965935 7.25309056 59.98821495 1 58 C-3.04357576 56.05041883 -4.59971635 55.12107414 -6.1171875 50.87109375 C-7.04315668 46.81075987 -7.44733227 42.89435286 -7.625 38.75 C-7.66512207 37.98075195 -7.70524414 37.21150391 -7.74658203 36.41894531 C-7.94277567 32.21139871 -8.01329292 28.02425459 -7.953125 23.8125 C-7.94200684 22.9659082 -7.93088867 22.11931641 -7.91943359 21.24707031 C-7.8905003 19.62108281 -7.84728205 17.9952665 -7.78759766 16.37011719 C-7.68808875 11.41607179 -8.45868467 8.39075423 -11 4 C-11 3.34 -11 2.68 -11 2 C-7.12315913 0.80712589 -4.08378077 0 0 0 Z " fill="#151515" transform="translate(303,149)"/>
<path d="M0 0 C2.72900483 2.72900483 1.95424285 9.40425091 2 13 C1.68228629 16.54418002 1.1821295 20.05895007 0.58666992 23.56665039 C-0.03801727 27.5341783 0.07221489 29.53144725 2 33 C1.94140625 35.48046875 1.94140625 35.48046875 1.5625 38.1875 C0.817613 44.74250557 1.31981266 50.63522253 3 57 C-1.08443115 58.53166168 -4.79455657 57.63081652 -9 57 C-8.83918945 56.039729 -8.67837891 55.07945801 -8.51269531 54.09008789 C-7.87189698 49.57941317 -7.81984351 45.10850943 -7.796875 40.55859375 C-7.79117493 39.67269058 -7.78547485 38.78678741 -7.77960205 37.8740387 C-7.7702024 36.01084572 -7.76363824 34.14763649 -7.75976562 32.28442383 C-7.75001742 29.44257806 -7.7189296 26.60144343 -7.6875 23.75976562 C-7.68097273 21.94271259 -7.67572118 20.12565444 -7.671875 18.30859375 C-7.6595282 17.46469589 -7.6471814 16.62079803 -7.63446045 15.75132751 C-7.65349252 10.69189336 -8.39792896 7.4729 -11 3 C-11 2.34 -11 1.68 -11 1 C-6.89951993 -0.62112003 -4.26246425 -1.33963162 0 0 Z " fill="#151615" transform="translate(380,150)"/>
<path d="M0 0 C0.80348877 0.03472412 1.60697754 0.06944824 2.43481445 0.10522461 C7.30007582 0.37928843 11.58744542 1.16041176 16.25 2.6875 C17.9515625 3.244375 17.9515625 3.244375 19.6875 3.8125 C20.533125 4.10125 21.37875 4.39 22.25 4.6875 C22.25 5.3475 22.25 6.0075 22.25 6.6875 C24.89 7.3475 27.53 8.0075 30.25 8.6875 C31.11809439 13.88923095 31.37515348 18.85728816 31.3125 24.125 C31.30798828 24.85654297 31.30347656 25.58808594 31.29882812 26.34179688 C31.28718148 28.12373419 31.26925191 29.90562863 31.25 31.6875 C28.80078125 30.8515625 28.80078125 30.8515625 26.25 29.6875 C25.4375 27.0625 25.4375 27.0625 25.25 24.6875 C24.26 24.3575 23.27 24.0275 22.25 23.6875 C21.6875 21.75 21.6875 21.75 21.25 19.6875 C19.89567309 18.33317309 18.5197269 17.00018414 17.125 15.6875 C15.25 13.6875 15.25 13.6875 15.25 11.6875 C14.21875 11.419375 13.1875 11.15125 12.125 10.875 C9.60370511 10.17324794 7.86415066 9.46316899 5.5625 8.125 C-2.75101742 4.51724716 -12.1733119 5.27530647 -20.75 7.6875 C-21.45125 8.06261719 -22.1525 8.43773438 -22.875 8.82421875 C-24.75 9.6875 -24.75 9.6875 -27.75 8.6875 C-24.6245041 6.04284962 -21.66211733 4.84335285 -17.75 3.6875 C-18.74 2.6975 -19.73 1.7075 -20.75 0.6875 C-13.7981446 -0.32793955 -6.99621383 -0.34056862 0 0 Z " fill="#040403" transform="translate(166.75,112.3125)"/>
<path d="M0 0 C9.51351488 3.07941983 16.99843507 5.99718313 22 15 C22 15.66 22 16.32 22 17 C22.66 17.33 23.32 17.66 24 18 C26.98944262 29.16058577 25.81106133 37.61625962 20.4921875 47.6875 C18.29359422 51.09474404 15.68179793 54.17969274 12 56 C9.78515625 55.64453125 9.78515625 55.64453125 8 55 C8.598125 54.505 9.19625 54.01 9.8125 53.5 C15.15030694 47.39964921 16.24033251 39.23253892 16.16015625 31.38671875 C15.97072182 28.56368365 15.20781718 26.54983628 14 24 C13.7525 22.7625 13.505 21.525 13.25 20.25 C11.87289324 14.49019632 8.57567599 8.92029936 3.8046875 5.36328125 C2.91136719 4.68845703 2.91136719 4.68845703 2 4 C2 3.34 2 2.68 2 2 C1.34 2 0.68 2 0 2 C0 1.34 0 0.68 0 0 Z " fill="#151515" transform="translate(252,148)"/>
<path d="M0 0 C0.99 0.33 1.98 0.66 3 1 C3 1.66 3 2.32 3 3 C2.01 3.2475 1.02 3.495 0 3.75 C-3.64194631 4.77475817 -6.79179318 6.36477114 -10.1328125 8.11328125 C-12.37908244 9.18002451 -14.53725513 9.69215689 -17 10 C-16.67 9.01 -16.34 8.02 -16 7 C-14.02 6.67 -12.04 6.34 -10 6 C-9.67 5.01 -9.34 4.02 -9 3 C-5.846632 2.29925156 -3.27275026 2 0 2 C0 1.34 0 0.68 0 0 Z M-19 10 C-18.34 10 -17.68 10 -17 10 C-18.13804514 13.41413542 -18.755089 13.68220643 -21.5625 15.6875 C-28.44175833 21.51127646 -33.86055815 31.88785303 -35 40.875 C-35.03403719 42.24957865 -35.03365282 43.62541188 -35 45 C-35.03480469 45.81855469 -35.06960937 46.63710937 -35.10546875 47.48046875 C-35.37216101 55.87492502 -33.49368841 62.38682734 -29.90234375 69.921875 C-29.02764509 71.93633252 -28.46787412 73.8583906 -28 76 C-27.34 76 -26.68 76 -26 76 C-23.375 78.375 -23.375 78.375 -21 81 C-21 81.66 -21 82.32 -21 83 C-20.01 83 -19.02 83 -18 83 C-17.38511719 83.89332031 -17.38511719 83.89332031 -16.7578125 84.8046875 C-14.34320446 87.82026465 -11.39353435 88.81225612 -7.875 90.125 C-7.19920898 90.38361816 -6.52341797 90.64223633 -5.82714844 90.90869141 C7.6409786 95.95197904 19.77804884 95.16267046 34 94 C34.33 94.66 34.66 95.32 35 96 C26.48616142 97.61072622 18.20096717 98.17210172 9.5625 97.6875 C8.87623535 97.65285645 8.1899707 97.61821289 7.48291016 97.58251953 C3.84106437 97.33721386 1.15854952 96.8181267 -2 95 C-3.99110401 94.61709538 -5.99100513 94.27395385 -8 94 C-8 93.34 -8 92.68 -8 92 C-8.886875 91.9175 -9.77375 91.835 -10.6875 91.75 C-14.55895267 90.87344468 -16.06949872 89.64459871 -19 87 C-19.61617187 86.49597656 -20.23234375 85.99195313 -20.8671875 85.47265625 C-24.62749212 82.38437394 -24.62749212 82.38437394 -26 81 C-26 80.34 -26 79.68 -26 79 C-27.32 78.34 -28.64 77.68 -30 77 C-30 76.01 -30 75.02 -30 74 C-30.99 73.67 -31.98 73.34 -33 73 C-33 71.68 -33 70.36 -33 69 C-33.66 69 -34.32 69 -35 69 C-36.4512573 64.02426068 -37.76368629 59.03356296 -39 54 C-38.34 54 -37.68 54 -37 54 C-37.13019531 52.98421875 -37.26039062 51.9684375 -37.39453125 50.921875 C-38.43304757 41.26084735 -37.58226928 34.79970821 -33 26 C-32.67 25.01 -32.34 24.02 -32 23 C-31.34 23 -30.68 23 -30 23 C-29.67 21.68 -29.34 20.36 -29 19 C-28.34 19 -27.68 19 -27 19 C-27 18.34 -27 17.68 -27 17 C-26.02149805 15.97895449 -25.02019573 14.9793879 -24 14 C-23.67 13.34 -23.34 12.68 -23 12 C-21.68 12 -20.36 12 -19 12 C-19 11.34 -19 10.68 -19 10 Z " fill="#030303" transform="translate(143,113)"/>
<path d="M0 0 C5.89445182 0.20682287 9.27530041 1.13833082 13.58203125 5.2578125 C15.85950973 8.05603675 16.55625972 10.4500778 17 14 C16.27969324 16.93663527 15.34424808 19.31150385 14 22 C14.99 22.33 15.98 22.66 17 23 C16.01 23.33 15.02 23.66 14 24 C14 24.66 14 25.32 14 26 C5.00183242 27.71393668 -10.34859148 29.6657785 -18.3125 24.5 C-18.869375 24.005 -19.42625 23.51 -20 23 C-22.14733927 22.29485154 -22.14733927 22.29485154 -24 22 C-24 20.68 -24 19.36 -24 18 C-23.34 18 -22.68 18 -22 18 C-22 16.35 -22 14.7 -22 13 C-22.66 13 -23.32 13 -24 13 C-24 12.34 -24 11.68 -24 11 C-23.34 11 -22.68 11 -22 11 C-22 9.35 -22 7.7 -22 6 C-20.68 6 -19.36 6 -18 6 C-18 7.65 -18 9.3 -18 11 C-17.01 11.33 -16.02 11.66 -15 12 C-15 12.99 -15 13.98 -15 15 C-13.68 15.66 -12.36 16.32 -11 17 C-11 17.66 -11 18.32 -11 19 C-5.59246149 21.74668623 -1.20797054 23.81992064 5 23 C8.42634728 21.70703876 10.41076615 20.93741749 12.375 17.8125 C12.58125 17.214375 12.7875 16.61625 13 16 C13.66 16 14.32 16 15 16 C14.65555119 13.52733235 14.65555119 13.52733235 14 11 C13.34 10.67 12.68 10.34 12 10 C11.649375 9.236875 11.29875 8.47375 10.9375 7.6875 C8.12084909 3.78053261 4.41540901 2.65693546 0 1 C0 0.67 0 0.34 0 0 Z " fill="#030202" transform="translate(463,183)"/>
<path d="M0 0 C0.66 0 1.32 0 2 0 C3.14406398 2.28812797 3.10497623 3.49338811 3.06591797 6.03149414 C3.05128006 7.27903221 3.05128006 7.27903221 3.03634644 8.55177307 C3.01448776 9.90479774 3.01448776 9.90479774 2.9921875 11.28515625 C2.97465447 13.19726016 2.95774783 15.10936991 2.94140625 17.02148438 C2.91058123 20.03426284 2.87524381 23.04674864 2.82861328 26.05932617 C2.78594132 28.9679717 2.76272923 31.87628096 2.7421875 34.78515625 C2.72356659 35.67300308 2.70494568 36.56084991 2.6857605 37.4756012 C2.66291083 43.12309915 2.99423647 49.05525516 6 54 C8.03893318 54.80153036 8.03893318 54.80153036 10 55 C10 55.66 10 56.32 10 57 C14.29 57 18.58 57 23 57 C23 57.66 23 58.32 23 59 C10.75645756 59.39852399 10.75645756 59.39852399 5 57 C-2.74556635 48.85602327 -0.24065272 31.19522256 -0.125 20.625 C-0.11493716 19.00260977 -0.10581722 17.38021341 -0.09765625 15.7578125 C-0.07593419 11.83838617 -0.04159219 7.91926375 0 4 C-1.60875 4.495 -1.60875 4.495 -3.25 5 C-7 6 -7 6 -11 6 C-10.34386719 7.10214844 -9.68773437 8.20429688 -9.01171875 9.33984375 C-6.46276025 14.45236475 -6.58627081 18.95279947 -6.8125 24.5625 C-6.85131338 26.51164936 -6.88645537 28.4608752 -6.91796875 30.41015625 C-6.94576416 31.83352295 -6.94576416 31.83352295 -6.97412109 33.28564453 C-7.05144522 41.39592388 -6.83906975 49.33681985 -4 57 C-5.65 56.67 -7.3 56.34 -9 56 C-8.979375 55.0925 -8.95875 54.185 -8.9375 53.25 C-8.87391174 50.18703078 -8.87391174 50.18703078 -9.49681091 48.03179932 C-10.3341604 44.65071224 -10.12096578 41.19746602 -10.09765625 37.734375 C-10.0962413 36.94097717 -10.09482635 36.14757935 -10.09336853 35.33013916 C-10.08778415 32.80338728 -10.07523454 30.27672496 -10.0625 27.75 C-10.05748298 26.03385545 -10.05292043 24.31770951 -10.04882812 22.6015625 C-10.03781984 18.40100731 -10.02056596 14.20051883 -10 10 C-11.98 9.34 -13.96 8.68 -16 8 C-16 7.34 -16 6.68 -16 6 C-16.66 5.67 -17.32 5.34 -18 5 C-15.36 5 -12.72 5 -10 5 C-10 4.34 -10 3.68 -10 3 C-9.04287109 2.80083984 -9.04287109 2.80083984 -8.06640625 2.59765625 C-7.24011719 2.42105469 -6.41382813 2.24445313 -5.5625 2.0625 C-4.32693359 1.80146484 -4.32693359 1.80146484 -3.06640625 1.53515625 C-1.02338796 1.19247006 -1.02338796 1.19247006 0 0 Z " fill="#030302" transform="translate(303,145)"/>
<path d="M0 0 C1.95766281 -0.08082094 3.91626728 -0.13910778 5.875 -0.1875 C7.51082031 -0.23970703 7.51082031 -0.23970703 9.1796875 -0.29296875 C10.11039063 -0.19628906 11.04109375 -0.09960938 12 0 C14 3 14 3 13.625 5.6875 C13.41875 6.450625 13.2125 7.21375 13 8 C13.66 8 14.32 8 15 8 C17.860455 14.82108499 20.03008535 21.87800087 22 29 C21.34 29 20.68 29 20 29 C19.67 30.32 19.34 31.64 19 33 C16.00941957 31.8369965 14.33982785 30.69560429 12.91796875 27.78515625 C12.25139977 26.0191468 11.59821319 24.24804051 10.95703125 22.47265625 C9.73302238 19.31021699 7.90527045 16.80186831 6 14 C0 2.79802956 0 2.79802956 0 0 Z " fill="#151615" transform="translate(627,149)"/>
<path d="M0 0 C0.66 0.33 1.32 0.66 2 1 C2 1.66 2 2.32 2 3 C-0.64 3.33 -3.28 3.66 -6 4 C-5.195625 4.5775 -4.39125 5.155 -3.5625 5.75 C-0.78225976 8.19118655 -0.5174884 8.53387237 0 12 C0.0888359 14.48677405 0.12636307 16.9444699 0.11352539 19.43066406 C0.11367142 20.17251953 0.11381744 20.914375 0.1139679 21.67871094 C0.11327269 24.12437897 0.10549866 26.56997031 0.09765625 29.015625 C0.09579068 30.71384642 0.09436743 32.41206838 0.09336853 34.11029053 C0.08955432 38.57533255 0.07973339 43.04034194 0.06866455 47.50537109 C0.05842687 52.06347207 0.05386586 56.62157833 0.04882812 61.1796875 C0.03811014 70.11980599 0.02104687 79.05990028 0 88 C-0.99 88.495 -0.99 88.495 -2 89 C-3.486486 86.02702799 -3.07829192 83.02257799 -3.01831055 79.76806641 C-2.99863655 78.22409103 -2.97900027 76.68011518 -2.95939636 75.13613892 C-2.94716726 74.31594898 -2.93493816 73.49575905 -2.92233849 72.65071487 C-2.86177989 68.31679476 -2.83102751 63.98261776 -2.79492188 59.6484375 C-2.74697258 54.12858112 -2.69021768 48.60922209 -2.60229492 43.08984375 C-2.5320732 38.6330849 -2.49109642 34.17689649 -2.46967506 29.71964645 C-2.45607229 28.02026743 -2.43162994 26.32093955 -2.39618492 24.62187576 C-2.34794774 22.24412401 -2.33703694 19.86890022 -2.3347168 17.49072266 C-2.3115741 16.78823898 -2.2884314 16.08575531 -2.2645874 15.36198425 C-2.22347015 13.13474577 -2.22347015 13.13474577 -3 10 C-5.96917822 7.76637844 -5.96917822 7.76637844 -9 6 C-9 4.68 -9 3.36 -9 2 C-5.62182575 1.15545644 -3.32534757 0.89155081 0 2 C0 1.34 0 0.68 0 0 Z " fill="#030303" transform="translate(603,113)"/>
<path d="M0 0 C0.99 0 1.98 0 3 0 C6.54799583 3.72539562 8.8533456 7.29780464 11 12 C11.5878125 13.051875 11.5878125 13.051875 12.1875 14.125 C13 16 13 16 13 20 C12.34 20 11.68 20 11 20 C11 20.99 11 21.98 11 23 C7.58946704 24.70526648 3.69397079 24.16320762 -0.05859375 24.16796875 C-1.40873314 24.17296135 -1.40873314 24.17296135 -2.78614807 24.17805481 C-4.69181812 24.18312245 -6.59749705 24.18546319 -8.50317383 24.18530273 C-11.42218616 24.18748853 -14.34082024 24.20564399 -17.25976562 24.22460938 C-19.1093737 24.22754343 -20.95898358 24.22952815 -22.80859375 24.23046875 C-23.68366074 24.23765427 -24.55872772 24.24483978 -25.46031189 24.25224304 C-26.27448074 24.24916641 -27.0886496 24.24608978 -27.92749023 24.24291992 C-28.64315659 24.24434494 -29.35882294 24.24576996 -30.09617615 24.24723816 C-32 24 -32 24 -35 22 C-36.11490122 19.08886904 -36.45893576 17.99627027 -36 15 C-34.05192806 11.05077514 -31.78476897 7.41458368 -29 4 C-28.34 4 -27.68 4 -27 4 C-27 4.66 -27 5.32 -27 6 C-27.66 6 -28.32 6 -29 6 C-29.144375 7.051875 -29.28875 8.10375 -29.4375 9.1875 C-30.69230769 17.69230769 -30.69230769 17.69230769 -33 20 C-28.94281523 19.90623192 -24.88615941 19.80008728 -20.82958984 19.68261719 C-19.45044757 19.64440662 -18.07120833 19.60953998 -16.69189453 19.578125 C-14.70583033 19.53230376 -12.72008321 19.47333737 -10.734375 19.4140625 C-8.94338379 19.36693115 -8.94338379 19.36693115 -7.11621094 19.31884766 C-4.13473958 19.01378642 -2.60612505 18.31602832 0 17 C3 18.3125 3 18.3125 6 20 C8.23525035 20.68636625 8.23525035 20.68636625 10 21 C9.2966205 12.55944605 6.21215644 6.69447674 0 1 C0 0.67 0 0.34 0 0 Z " fill="#060605" transform="translate(541,150)"/>
<path d="M0 0 C0 -0.33 0 -0.66 0 -1 C2.97 -1 5.94 -1 9 -1 C9 -0.34 9 0.32 9 1 C10.65 1 12.3 1 14 1 C14.33 1.66 14.66 2.32 15 3 C13.35 3.33 11.7 3.66 10 4 C10.11455681 5.91731918 10.24206258 7.8338675 10.375 9.75 C10.44460938 10.81734375 10.51421875 11.8846875 10.5859375 12.984375 C10.97729885 15.83466708 11.57294079 17.54655589 13 20 C13.66666667 21.66666667 14.33333333 23.33333333 15 25 C15.63531742 26.54602994 16.28208173 28.08738376 16.9375 29.625 C17.25589844 30.38039062 17.57429687 31.13578125 17.90234375 31.9140625 C19.02306084 34.0438238 20.21601647 35.40407171 22 37 C21.34 38.65 20.68 40.3 20 42 C13.83037729 32.74556594 8.77582634 21.0101233 7 10 C6.34 10 5.68 10 5 10 C5.020625 9.030625 5.04125 8.06125 5.0625 7.0625 C5.35618499 4.12534105 5.35618499 4.12534105 4 3 C1.98405418 2.76572222 -0.038474 2.58663876 -2.0625 2.4375 C-3.16722656 2.35371094 -4.27195312 2.26992187 -5.41015625 2.18359375 C-6.26480469 2.12300781 -7.11945312 2.06242188 -8 2 C-7.70230713 2.55461914 -7.40461426 3.10923828 -7.09790039 3.68066406 C-5.74820356 6.20136324 -4.40529532 8.72561808 -3.0625 11.25 C-2.59392578 12.12269531 -2.12535156 12.99539062 -1.64257812 13.89453125 C-1.19462891 14.73886719 -0.74667969 15.58320313 -0.28515625 16.453125 C0.33540649 17.61569824 0.33540649 17.61569824 0.96850586 18.80175781 C2 21 2 21 2.51782227 23.22167969 C2.67694092 23.80852539 2.83605957 24.39537109 3 25 C3.66 25.33 4.32 25.66 5 26 C5.8515625 28.06640625 5.8515625 28.06640625 6.625 30.5625 C6.88539063 31.38878906 7.14578125 32.21507812 7.4140625 33.06640625 C7.70410156 34.02353516 7.70410156 34.02353516 8 35 C7.01 35.495 7.01 35.495 6 36 C5.15930585 34.39967863 4.32768495 32.79458829 3.5 31.1875 C3.0359375 30.29417969 2.571875 29.40085938 2.09375 28.48046875 C1 26 1 26 1 23 C0.34 22.67 -0.32 22.34 -1 22 C-2.06577716 19.94953741 -3.05443954 17.85859982 -4 15.75 C-4.515625 14.61046875 -5.03125 13.4709375 -5.5625 12.296875 C-6.44877904 10.2642133 -7.29006272 8.21038482 -8.0546875 6.12890625 C-8.52261719 5.07509766 -8.52261719 5.07509766 -9 4 C-11.04105639 3.11306697 -11.04105639 3.11306697 -13 3 C-12.67 2.01 -12.34 1.02 -12 0 C-7.6835078 -0.76173392 -4.25566547 -1.16063604 0 0 Z " fill="#030302" transform="translate(635,147)"/>
<path d="M0 0 C18.34042553 0.80851064 18.34042553 0.80851064 27 3 C27 3.66 27 4.32 27 5 C27.70125 5.103125 28.4025 5.20625 29.125 5.3125 C32.44209227 6.10571772 35.06538379 7.2659086 38 9 C39.18695553 12.56086658 39.35095418 15.97331024 39.5625 19.6875 C39.60568359 20.38939453 39.64886719 21.09128906 39.69335938 21.81445312 C39.7991736 23.54275206 39.90006581 25.2713511 40 27 C37 26 37 26 35.82421875 23.890625 C35.44910156 23.01921875 35.07398438 22.1478125 34.6875 21.25 C32.41187287 16.43062049 30.29570149 14.08169889 26 11 C25.55914062 10.5153125 25.11828125 10.030625 24.6640625 9.53125 C18.36352842 3.73357545 8.20656997 2.08236257 0 1 C0 0.67 0 0.34 0 0 Z " fill="#161615" transform="translate(157,114)"/>
<path d="M0 0 C1.27514492 3.82543475 0.52740413 5.33423008 -1 9 C-3.43388669 12.45868108 -7.11436885 13.61697874 -11 15 C-14.4375 15.1875 -14.4375 15.1875 -17 15 C-19.5059761 8.51394422 -19.5059761 8.51394422 -18 5 C-17.34 4.34 -16.68 3.68 -16 3 C-13.79296875 3.12890625 -13.79296875 3.12890625 -11.1875 3.5625 C-7.60720085 4.01262432 -6.31124345 4.13974196 -2.9375 2.625 C-1.93136699 1.78114651 -0.9285452 0.9285452 0 0 Z " fill="#151516" transform="translate(649,223)"/>
<path d="M0 0 C1.32 0.33 2.64 0.66 4 1 C4.495 2.98 4.495 2.98 5 5 C4.34 5 3.68 5 3 5 C3 8.3 3 11.6 3 15 C2.34 15.33 1.68 15.66 1 16 C0.505 11.545 0.505 11.545 0 7 C-0.37511719 7.53109375 -0.75023437 8.0621875 -1.13671875 8.609375 C-4.10563033 12.70751995 -6.87671999 15.99111999 -11 19 C-11.495 19.53625 -11.99 20.0725 -12.5 20.625 C-14.49694654 22.45553433 -16.44767654 23.10965461 -19 24 C-20.3921875 24.5259375 -20.3921875 24.5259375 -21.8125 25.0625 C-31.20095823 27.82381124 -40.94957595 28.02057229 -50 24 C-50.66 23.01 -51.32 22.02 -52 21 C-51.28457031 21.2165625 -50.56914062 21.433125 -49.83203125 21.65625 C-39.84704832 24.44636166 -30.2010265 24.89786539 -20 23 C-20 22.34 -20 21.68 -20 21 C-18.02 20.67 -16.04 20.34 -14 20 C-13.505 18.515 -13.505 18.515 -13 17 C-11.27870503 15.37995767 -9.45074522 13.96124214 -7.59375 12.5 C-5.73155509 10.98483163 -5.73155509 10.98483163 -5 8 C-4.34 7.34 -3.68 6.68 -3 6 C-2.30062468 4.68352881 -1.63270867 3.34977849 -1 2 C-0.67 1.34 -0.34 0.68 0 0 Z " fill="#030302" transform="translate(195,180)"/>
<path d="M0 0 C1.32 0 2.64 0 4 0 C4 0.99 4 1.98 4 3 C5.32 3.33 6.64 3.66 8 4 C9.1163162 10.97430763 9.25644966 17.87259534 9.29516602 24.92529297 C9.30675099 26.39544245 9.32730441 27.86554779 9.35668945 29.33544922 C9.39937738 31.47652297 9.41552585 33.61636616 9.42578125 35.7578125 C9.44036377 37.0277002 9.45494629 38.29758789 9.4699707 39.60595703 C8.92187094 43.56423387 7.8352492 45.23369403 5 48 C4.34 48 3.68 48 3 48 C3 48.66 3 49.32 3 50 C2.01 49.67 1.02 49.34 0 49 C1.3125 47 1.3125 47 3 45 C3.99 45 4.98 45 6 45 C5.67 43.02 5.34 41.04 5 39 C5.66 39 6.32 39 7 39 C7 38.01 7 37.02 7 36 C6.34 36 5.68 36 5 36 C4.78232358 27.03898756 4.95595455 18.7784452 7 10 C6.34 10 5.68 10 5 10 C5 9.34 5 8.68 5 8 C5.66 8 6.32 8 7 8 C4.82575883 5.49962266 3.26954202 4.56371414 0 4 C0 2.68 0 1.36 0 0 Z " fill="#010101" transform="translate(330,150)"/>
<path d="M0 0 C7.34149159 1.04878451 12.00303879 2.15886403 16.67578125 8.0703125 C19.94665331 12.83671604 21.43012882 17.12157273 21 23 C19.72125 22.896875 18.4425 22.79375 17.125 22.6875 C16.40570312 22.62949219 15.68640625 22.57148438 14.9453125 22.51171875 C13 22 13 22 11 19 C11.0309375 17.6078125 11.0309375 17.6078125 11.0625 16.1875 C10.98844274 12.41057994 9.78880099 10.27946849 8 7 C8 6.34 8 5.68 8 5 C7.4225 4.71125 6.845 4.4225 6.25 4.125 C4.16666667 3.08333333 2.08333333 2.04166667 0 1 C0 0.67 0 0.34 0 0 Z " fill="#151615" transform="translate(530,148)"/>
<path d="M0 0 C0 0.66 0 1.32 0 2 C0.66 2.33 1.32 2.66 2 3 C-1.3 2.67 -4.6 2.34 -8 2 C-6.9275 2.495 -5.855 2.99 -4.75 3.5 C-0.9486279 5.6633825 0.59283918 8.12715186 2.46875 12 C3.0955898 14.35986747 2.77545644 15.71444417 2 18 C1.67 18 1.34 18 1 18 C1 16.35 1 14.7 1 13 C0.34 13 -0.32 13 -1 13 C-1.309375 12.0925 -1.61875 11.185 -1.9375 10.25 C-4.76148376 5.80008619 -7.94483445 4.2759823 -13 3 C-15.87173698 2.9763058 -18.16830144 3.38217486 -21 4 C-21.33 4.99 -21.66 5.98 -22 7 C-22.99 6.67 -23.98 6.34 -25 6 C-24.67 5.34 -24.34 4.68 -24 4 C-25.65 4.33 -27.3 4.66 -29 5 C-29 5.66 -29 6.32 -29 7 C-33.47058824 11 -33.47058824 11 -36 11 C-36 10.01 -36 9.02 -36 8 C-34.36368108 6.95107762 -32.69514137 5.95093297 -31 5 C-30.67 4.34 -30.34 3.68 -30 3 C-27.66476864 1.85621321 -25.42839796 0.89817459 -23 0 C-21.845 -0.433125 -20.69 -0.86625 -19.5 -1.3125 C-13.1935016 -2.85158592 -6.30327547 -1.06696069 0 0 Z " fill="#040302" transform="translate(539,147)"/>
<path d="M0 0 C0.66 0.33 1.32 0.66 2 1 C1.6297613 7.4174708 1.6297613 7.4174708 -1.5 10.3125 C-2.325 10.869375 -3.15 11.42625 -4 12 C-4.33 12.66 -4.66 13.32 -5 14 C-7.33333333 14.66666667 -9.66666667 15.33333333 -12 16 C-12.33 16.66 -12.66 17.32 -13 18 C-21.48963956 20.3819852 -32.10523053 20.17732948 -40 16 C-40.33 15.34 -40.66 14.68 -41 14 C-36.25 14.875 -36.25 14.875 -34 16 C-25.61573105 16.49883522 -17.61851064 16.96162553 -10 13 C-9.34 12.34 -8.68 11.68 -8 11 C-11.63 11.33 -15.26 11.66 -19 12 C-15.9850034 9.99000227 -13.33678343 9.00556269 -9.9375 7.87890625 C-7.01141267 6.55154809 -5.42676145 4.8535229 -4 2 C-2.0625 0.8125 -2.0625 0.8125 0 0 Z " fill="#030202" transform="translate(551,191)"/>
<path d="M0 0 C3.3 0 6.6 0 10 0 C12.46321864 4.92643729 12.80896637 8.57992533 12 14 C10.74391386 17.00494455 9.30402303 19.67650636 7 22 C6.01 22 5.02 22 4 22 C4.15597656 21.33613281 4.31195313 20.67226562 4.47265625 19.98828125 C4.66730469 19.10527344 4.86195313 18.22226563 5.0625 17.3125 C5.35833984 16.00732422 5.35833984 16.00732422 5.66015625 14.67578125 C6.02509476 11.8024148 5.84691238 9.7633541 5 7 C4.34 6.67 3.68 6.34 3 6 C2.34 5.67 1.68 5.34 1 5 C0.25 2.375 0.25 2.375 0 0 Z " fill="#151515" transform="translate(473,183)"/>
<path d="M0 0 C1.32 0 2.64 0 4 0 C4.33 0.66 4.66 1.32 5 2 C5.61875 2.20625 6.2375 2.4125 6.875 2.625 C10.26714376 4.81991655 11.0182909 8.19678624 12 12 C12.1875 15 12.1875 15 12 17 C12.66 17.33 13.32 17.66 14 18 C14 30.54 14 43.08 14 56 C12.515 56.495 12.515 56.495 11 57 C10.98541748 55.76958984 10.97083496 54.53917969 10.95581055 53.27148438 C10.89756279 48.67907565 10.82033232 44.08714373 10.73754883 39.49511719 C10.7044236 37.5127744 10.67635356 35.53034011 10.65356445 33.54785156 C10.61978946 30.68775671 10.56746312 27.82849108 10.51171875 24.96875 C10.50532883 24.09134155 10.4989389 23.21393311 10.49235535 22.30993652 C10.35744104 16.58278824 9.45991925 12.20352187 7 7 C6.01 6.34 5.02 5.68 4 5 C3.67 4.34 3.34 3.68 3 3 C2.01 2.67 1.02 2.34 0 2 C0 1.34 0 0.68 0 0 Z " fill="#030302" transform="translate(413,147)"/>
<path d="M0 0 C0.33 0 0.66 0 1 0 C0.67 2.97 0.34 5.94 0 9 C0.66 9 1.32 9 2 9 C2.33 11.31 2.66 13.62 3 16 C4.32 16.33 5.64 16.66 7 17 C7 17.99 7 18.98 7 20 C1.39194023 21.0162256 -3.76497252 20.96017114 -9.4375 20.5625 C-10.26443359 20.51029297 -11.09136719 20.45808594 -11.94335938 20.40429688 C-13.96265478 20.27590237 -15.98139629 20.13884576 -18 20 C-18 19.01 -18 18.02 -18 17 C-17.01 17 -16.02 17 -15 17 C-15 16.34 -15 15.68 -15 15 C-13.68 14.67 -12.36 14.34 -11 14 C-11 14.99 -11 15.98 -11 17 C-7.7 17.33 -4.4 17.66 -1 18 C-0.92928932 14.9057191 -0.92928932 14.9057191 -1.5 11.5 C-2.16651091 6.8344236 -1.85155884 4.28172981 0 0 Z " fill="#030202" transform="translate(612,189)"/>
<path d="M0 0 C1.18817968 3.73310433 1.11362739 7.27491645 1.09765625 11.171875 C1.0962413 11.8542926 1.09482635 12.53671021 1.09336853 13.23980713 C1.08779084 15.40991684 1.07524254 17.5799217 1.0625 19.75 C1.05748211 21.22525892 1.05291971 22.70051947 1.04882812 24.17578125 C1.03782875 27.78388798 1.02057953 31.39193375 1 35 C1.66 35 2.32 35 3 35 C3 37.31 3 39.62 3 42 C2.34 42 1.68 42 1 42 C1.33 40.35 1.66 38.7 2 37 C1.34 37 0.68 37 0 37 C0.25561323 39.3431213 0.59270772 41.67843403 1 44 C1.66 44.33 2.32 44.66 3 45 C1.515 45.495 1.515 45.495 0 46 C0.33 50.29 0.66 54.58 1 59 C0.01 59 -0.98 59 -2 59 C-2.12672979 40.30248132 -1.89757408 21.68195416 -1 3 C-2.98 3 -4.96 3 -7 3 C-4.74624683 0.74624683 -3.20799182 0 0 0 Z " fill="#040403" transform="translate(612,111)"/>
<path d="M0 0 C0.99 0 1.98 0 3 0 C3 2.31 3 4.62 3 7 C2.01 7.495 2.01 7.495 1 8 C0.34 7.67 -0.32 7.34 -1 7 C-0.34 8.32 0.32 9.64 1 11 C-2 12 -2 12 -5 12 C-5.268125 11.030625 -5.53625 10.06125 -5.8125 9.0625 C-6.204375 8.051875 -6.59625 7.04125 -7 6 C-7.99 5.67 -8.98 5.34 -10 5 C-10 4.01 -10 3.02 -10 2 C-9.04287109 1.90912109 -9.04287109 1.90912109 -8.06640625 1.81640625 C-6.82697266 1.69072266 -6.82697266 1.69072266 -5.5625 1.5625 C-4.73878906 1.48128906 -3.91507812 1.40007812 -3.06640625 1.31640625 C-1.01337975 1.21069185 -1.01337975 1.21069185 0 0 Z " fill="#181819" transform="translate(344,148)"/>
<path d="M0 0 C0.825 0.144375 1.65 0.28875 2.5 0.4375 C6.32686278 1.05253152 10.15216707 1.53560637 14 2 C14 2.66 14 3.32 14 4 C13.38640625 4.24492187 12.7728125 4.48984375 12.140625 4.7421875 C9.57364433 6.25052285 8.96142096 7.44256788 7.75 10.125 C7.41484375 10.84945312 7.0796875 11.57390625 6.734375 12.3203125 C6.49203125 12.87460938 6.2496875 13.42890625 6 14 C5.34 14 4.68 14 4 14 C4.99 10.37 5.98 6.74 7 3 C5.02 3.33 3.04 3.66 1 4 C1.33 4.66 1.66 5.32 2 6 C2.04022391 8.3329866 2.04320247 10.66706666 2 13 C1.34 13 0.68 13 0 13 C0 11.02 0 9.04 0 7 C-0.99 6.67 -1.98 6.34 -3 6 C-3 5.34 -3 4.68 -3 4 C-4.32 4 -5.64 4 -7 4 C-7 3.34 -7 2.68 -7 2 C-3.535 1.505 -3.535 1.505 0 1 C0 0.67 0 0.34 0 0 Z " fill="#040302" transform="translate(674,146)"/>
<path d="M0 0 C0.33 0.66 0.66 1.32 1 2 C-0.14453125 4.171875 -0.14453125 4.171875 -1.8125 6.75 C-10.03410239 20.01494645 -8.63622506 34.19477175 -6 49 C-8.57349738 47.10000745 -9.02412641 45.90161131 -9.80078125 42.734375 C-9.99174944 41.4090289 -10.16109781 40.08044673 -10.3125 38.75 C-10.43431641 37.68797363 -10.43431641 37.68797363 -10.55859375 36.60449219 C-11.75558153 24.13032783 -9.38022744 13.77415765 -3 3 C-2.34 3 -1.68 3 -1 3 C-0.67 2.01 -0.34 1.02 0 0 Z " fill="#050403" transform="translate(129,129)"/>
<path d="M0 0 C2.97 0.495 2.97 0.495 6 1 C6 2.32 6 3.64 6 5 C7.32 5.33 8.64 5.66 10 6 C9.67 6.66 9.34 7.32 9 8 C9.66 8.33 10.32 8.66 11 9 C11.8125 12.375 11.8125 12.375 12 16 C10.5625 17.9375 10.5625 17.9375 9 19 C9.66 19 10.32 19 11 19 C10.67 19.99 10.34 20.98 10 22 C9.34 22 8.68 22 8 22 C7.5978125 23.2065625 7.5978125 23.2065625 7.1875 24.4375 C6.795625 25.283125 6.40375 26.12875 6 27 C5.01 27.33 4.02 27.66 3 28 C5 23 5 23 6.125 20.6875 C7.77126391 15.63111799 7.55973192 11.51127618 5.75 6.625 C3.97754061 3.96631091 2.97577944 3.02613084 0 2 C0 1.34 0 0.68 0 0 Z " fill="#020101" transform="translate(477,177)"/>
<path d="M0 0 C5 2 5 2 7.375 3.0625 C13.94491841 5.40889943 19.47309094 5.14700956 26 3 C27.67623498 2.01612294 29.34634594 1.02137457 31 0 C32.485 0.495 32.485 0.495 34 1 C34 1.66 34 2.32 34 3 C32.58398286 3.48108275 31.16715563 3.95978141 29.75 4.4375 C28.96109375 4.70433594 28.1721875 4.97117188 27.359375 5.24609375 C23.2897444 6.54648896 19.51721948 7.20689838 15.25 7.5625 C14.26515625 7.64628906 13.2803125 7.73007813 12.265625 7.81640625 C11.51796875 7.87699219 10.7703125 7.93757812 10 8 C10 7.34 10 6.68 10 6 C9.2575 5.855625 8.515 5.71125 7.75 5.5625 C5.47972261 5.09812508 3.24240521 4.58136431 1 4 C0.67 2.68 0.34 1.36 0 0 Z " fill="#030302" transform="translate(298,203)"/>
<path d="M0 0 C0.02578125 0.66386719 0.0515625 1.32773438 0.078125 2.01171875 C0.43230278 7.52562278 0.70189813 11.14272909 5 15 C7.60088071 16.79028118 10.25776733 18.43586244 13 20 C9.06329512 21.31223496 6.87511856 20.24296256 3 19 C2.67 17.35 2.34 15.7 2 14 C1.360625 13.855625 0.72125 13.71125 0.0625 13.5625 C-2 13 -2 13 -3 12 C-4.19565217 4.58695652 -4.19565217 4.58695652 -3 1 C-1 0 -1 0 0 0 Z M-2 7 C-1 9 -1 9 -1 9 Z " fill="#020202" transform="translate(443,159)"/>
<path d="M0 0 C0.33 0 0.66 0 1 0 C1.33 3.96 1.66 7.92 2 12 C-5.625 13.25 -5.625 13.25 -9 11 C-8.51789063 10.45730469 -8.03578125 9.91460937 -7.5390625 9.35546875 C-6.90742188 8.64003906 -6.27578125 7.92460937 -5.625 7.1875 C-4.68527344 6.12595703 -4.68527344 6.12595703 -3.7265625 5.04296875 C-1.859401 2.91196181 -1.859401 2.91196181 0 0 Z " fill="#19191A" transform="translate(195,186)"/>
<path d="M0 0 C0.66 0.66 1.32 1.32 2 2 C1.69708257 3.34057074 1.35385153 4.67196462 1 6 C0.90515736 8.6779099 0.86045229 11.32322049 0.875 14 C0.87113281 14.7115625 0.86726563 15.423125 0.86328125 16.15625 C0.86966022 19.57538017 0.92799268 22.73293006 2 26 C1.01 26 0.02 26 -1 26 C-1.66 24.35 -2.32 22.7 -3 21 C-2.67 20.67 -2.34 20.34 -2 20 C-2.33 19.01 -2.66 18.02 -3 17 C-2.5625 14.8125 -2.5625 14.8125 -2 13 C-2.66 12.67 -3.32 12.34 -4 12 C-3.67 10.68 -3.34 9.36 -3 8 C-2.34 8 -1.68 8 -1 8 C-1.309375 6.576875 -1.309375 6.576875 -1.625 5.125 C-1.74875 4.09375 -1.8725 3.0625 -2 2 C-1.34 1.34 -0.68 0.68 0 0 Z " fill="#040303" transform="translate(498,165)"/>
<path d="M0 0 C0.99 0.33 1.98 0.66 3 1 C2.57847656 1.47050781 2.15695312 1.94101563 1.72265625 2.42578125 C1.17480469 3.04839844 0.62695312 3.67101562 0.0625 4.3125 C-0.75541016 5.23482422 -0.75541016 5.23482422 -1.58984375 6.17578125 C-3.20081559 8.05241958 -3.20081559 8.05241958 -4 11 C-6.0625 11.6875 -6.0625 11.6875 -8 12 C-8.33 11.34 -8.66 10.68 -9 10 C-10.65 11.65 -12.3 13.3 -14 15 C-13.3125 11.625 -13.3125 11.625 -12 8 C-9.625 6.6875 -9.625 6.6875 -7 6 C-5.65949948 5.34786461 -4.32338632 4.68620031 -3 4 C-3 3.34 -3 2.68 -3 2 C-2.01 1.34 -1.02 0.68 0 0 Z " fill="#101010" transform="translate(513,150)"/>
<path d="M0 0 C2.52588702 2.36292656 3.88820837 3.66462511 5 7 C7.01508358 7.73323796 7.01508358 7.73323796 9 8 C9 8.99 9 9.98 9 11 C3.26696495 12.57300962 -1.15659442 13.24327778 -7 12 C-7 11.34 -7 10.68 -7 10 C-2.545 9.505 -2.545 9.505 2 9 C1.34 7.68 0.68 6.36 0 5 C-0.125 2.25 -0.125 2.25 0 0 Z " fill="#030302" transform="translate(347,197)"/>
<path d="M0 0 C1.37562854 1.28965176 2.70766393 2.62689293 4 4 C4 4.66 4 5.32 4 6 C4.598125 6.268125 5.19625 6.53625 5.8125 6.8125 C7.97224808 7.98493467 9.35790256 9.19369282 11 11 C8.05038085 12.24791579 6.96054636 11.98579669 3.875 10.875 C0.64159622 8.7662584 -0.18185225 7.72711754 -1 4 C-0.625 1.6875 -0.625 1.6875 0 0 Z " fill="#121212" transform="translate(443,195)"/>
<path d="M0 0 C0.33 0.66 0.66 1.32 1 2 C1.99 2.33 2.98 2.66 4 3 C3.34 3.66 2.68 4.32 2 5 C2 5.99 2 6.98 2 8 C2.66 8 3.32 8 4 8 C4.16276042 10.01822917 4.32552083 12.03645833 4.48828125 14.0546875 C4.87393036 16.39519216 4.87393036 16.39519216 8 18 C9.1875 20.625 9.1875 20.625 10 23 C7 23 7 23 5.44921875 21.78515625 C0.29082453 15.43101567 -0.60516067 7.90070871 0 0 Z " fill="#050403" transform="translate(506,173)"/>
<path d="M0 0 C1.9375 0.3125 1.9375 0.3125 4 1 C5.14229879 4.42689636 4.90861076 6.61102218 4.5625 10.1875 C4.46066406 11.27417969 4.35882813 12.36085937 4.25390625 13.48046875 C4.12822266 14.72763672 4.12822266 14.72763672 4 16 C3.34 16 2.68 16 2 16 C2 15.34 2 14.68 2 14 C1.34 14 0.68 14 0 14 C0 13.34 0 12.68 0 12 C-0.66 12 -1.32 12 -2 12 C-2 10.35 -2 8.7 -2 7 C-1.67 7.66 -1.34 8.32 -1 9 C-0.01 9 0.98 9 2 9 C1.51515724 4.35413108 1.51515724 4.35413108 0 0 Z " fill="#040403" transform="translate(479,150)"/>
<path d="M0 0 C0.78375 0.04125 1.5675 0.0825 2.375 0.125 C-0.625 2.125 -0.625 2.125 -2.625 2.125 C-2.955 4.435 -3.285 6.745 -3.625 9.125 C2.54182778 9.55029847 5.36272343 9.08819543 10.375 5.125 C11.365 4.465 12.355 3.805 13.375 3.125 C12.9375 5.375 12.9375 5.375 11.375 8.125 C6.64111046 11.13049174 2.02190212 12.70416945 -3.625 12.125 C-6.1309761 5.63894422 -6.1309761 5.63894422 -4.625 2.125 C-2.625 0.125 -2.625 0.125 0 0 Z " fill="#030202" transform="translate(635.625,225.875)"/>
<path d="M0 0 C1.98 0 3.96 0 6 0 C6.33 0.99 6.66 1.98 7 3 C6.34 3 5.68 3 5 3 C4.9175 3.86625 4.835 4.7325 4.75 5.625 C3.89392254 9.47734858 2.32631454 11.848219 0 15 C-0.33 13.68 -0.66 12.36 -1 11 C-0.34 10.67 0.32 10.34 1 10 C0.835 8.906875 0.67 7.81375 0.5 6.6875 C0 3 0 3 0 0 Z " fill="#171618" transform="translate(675,149)"/>
<path d="M0 0 C0.33 1.32 0.66 2.64 1 4 C-1.97 5.65 -4.94 7.3 -8 9 C-8 9.33 -8 9.66 -8 10 C-11.63 10.33 -15.26 10.66 -19 11 C-18 9 -18 9 -15.890625 8.25390625 C-14.58351562 7.91166016 -14.58351562 7.91166016 -13.25 7.5625 C-7.87793799 6.03747812 -3.79701955 4.19670581 0 0 Z " fill="#030302" transform="translate(197,197)"/>
<path d="M0 0 C6.75 0.75 6.75 0.75 9 3 C10.24193548 7.51612903 10.24193548 7.51612903 9 10 C8.01 10 7.02 10 6 10 C5.0234375 8.20963542 4.046875 6.41927083 3.0703125 4.62890625 C2.08589976 2.83381685 2.08589976 2.83381685 0 2 C0 1.34 0 0.68 0 0 Z " fill="#151617" transform="translate(472,149)"/>
<path d="M0 0 C2.52588702 2.36292656 3.88820837 3.66462511 5 7 C6.99665598 8.67067133 8.99651034 10.33752986 11 12 C11 12.66 11 13.32 11 14 C4.4 12.53333333 4.4 12.53333333 2.5 10 C2 8 2 8 3 6 C2.01 6 1.02 6 0 6 C-1.125 2.25 -1.125 2.25 0 0 Z " fill="#020201" transform="translate(214,189)"/>
<path d="M0 0 C-0.75 5.75 -0.75 5.75 -3 8 C-3.99 7.01 -4.98 6.02 -6 5 C-6.33 5.99 -6.66 6.98 -7 8 C-7.66 8 -8.32 8 -9 8 C-8.875 5.6875 -8.875 5.6875 -8 3 C-3.13793103 0 -3.13793103 0 0 0 Z " fill="#101010" transform="translate(451,150)"/>
<path d="M0 0 C2.31 0.33 4.62 0.66 7 1 C7 1.66 7 2.32 7 3 C7.62648438 3.04898438 8.25296875 3.09796875 8.8984375 3.1484375 C9.71570313 3.22320312 10.53296875 3.29796875 11.375 3.375 C12.59316406 3.47941406 12.59316406 3.47941406 13.8359375 3.5859375 C16 4 16 4 18 6 C18 6.66 18 7.32 18 8 C11.02013687 7.68978386 5.92708478 4.5048042 0 1 C0 0.67 0 0.34 0 0 Z " fill="#040303" transform="translate(459,169)"/>
<path d="M0 0 C0.66 0 1.32 0 2 0 C2.268125 0.721875 2.53625 1.44375 2.8125 2.1875 C4.6357074 6.50562279 6.05272694 9.36848463 10 12 C9.67 12.99 9.34 13.98 9 15 C8.34 14.67 7.68 14.34 7 14 C7 13.34 7 12.68 7 12 C6.01 11.67 5.02 11.34 4 11 C2.61328125 8.71484375 2.61328125 8.71484375 1.3125 5.9375 C0.87550781 5.01839844 0.43851563 4.09929687 -0.01171875 3.15234375 C-0.50091797 2.08693359 -0.50091797 2.08693359 -1 1 C-0.67 0.67 -0.34 0.34 0 0 Z " fill="#030202" transform="translate(226,189)"/>
<path d="M0 0 C0.99 1.32 1.98 2.64 3 4 C2.34 4 1.68 4 1 4 C1.185625 5.216875 1.37125 6.43375 1.5625 7.6875 C1.98993182 11.02977939 1.92258883 13.71968417 1 17 C0.34 16.67 -0.32 16.34 -1 16 C-0.96744792 13.98177083 -0.93489583 11.96354167 -0.90234375 9.9453125 C-0.87350758 7.91814596 -0.87350758 7.91814596 -2 6 C-1.39421747 3.98072489 -0.73080266 1.97746603 0 0 Z " fill="#060606" transform="translate(611,172)"/>
<path d="M0 0 C0.99 0 1.98 0 3 0 C3 1.65 3 3.3 3 5 C0 6 0 6 -1.9375 5.125 C-2.618125 4.75375 -3.29875 4.3825 -4 4 C-5.3242287 3.63215869 -6.65613912 3.28797019 -8 3 C-8 3.66 -8 4.32 -8 5 C-8.66 5 -9.32 5 -10 5 C-10 4.01 -10 3.02 -10 2 C-9.04287109 1.90912109 -9.04287109 1.90912109 -8.06640625 1.81640625 C-6.82697266 1.69072266 -6.82697266 1.69072266 -5.5625 1.5625 C-4.73878906 1.48128906 -3.91507812 1.40007812 -3.06640625 1.31640625 C-1.01337975 1.21069185 -1.01337975 1.21069185 0 0 Z " fill="#121313" transform="translate(344,148)"/>
<path d="M0 0 C0.66 0.33 1.32 0.66 2 1 C2 1.66 2 2.32 2 3 C2.66 3 3.32 3 4 3 C7 7.38461538 7 7.38461538 7 10 C8.32 10.66 9.64 11.32 11 12 C9 13 9 13 6.4375 12.4375 C4 11 4 11 3.1875 7.875 C3.125625 6.92625 3.06375 5.9775 3 5 C1.68 4.67 0.36 4.34 -1 4 C-0.67 2.68 -0.34 1.36 0 0 Z " fill="#010100" transform="translate(499,192)"/>
<path d="M0 0 C0.66 0 1.32 0 2 0 C2 0.66 2 1.32 2 2 C1.34 2 0.68 2 0 2 C-0.144375 3.051875 -0.28875 4.10375 -0.4375 5.1875 C-0.87526966 8.15460549 -1.37804866 11.06794366 -2 14 C-2.33 13.34 -2.66 12.68 -3 12 C-3.66 12 -4.32 12 -5 12 C-4.42365861 7.24518354 -2.44931479 4.02951788 0 0 Z " fill="#010101" transform="translate(512,154)"/>
<path d="M0 0 C0.99 0 1.98 0 3 0 C3.4125 0.474375 3.825 0.94875 4.25 1.4375 C6.87524834 3.78147173 9.58502942 3.67783296 13 4 C13 4.66 13 5.32 13 6 C13.66 6.33 14.32 6.66 15 7 C6.05245573 6.65252255 6.05245573 6.65252255 1.875 4.0625 C0 2 0 2 0 0 Z " fill="#020201" transform="translate(516,196)"/>
<path d="M0 0 C3.71134205 3.1994328 5.42930118 6.3705719 7 11 C6.6875 13.4375 6.6875 13.4375 6 15 C6 14.01 6 13.02 6 12 C5.34 12 4.68 12 4 12 C2.18757677 7.9811485 0.66498383 4.38889325 0 0 Z " fill="#030303" transform="translate(642,183)"/>
<path d="M0 0 C0.33 0 0.66 0 1 0 C1.33 3.96 1.66 7.92 2 12 C1.34 12 0.68 12 0 12 C-0.28875 11.38125 -0.5775 10.7625 -0.875 10.125 C-1.93720042 7.86674235 -1.93720042 7.86674235 -4 6 C-2.69593116 3.98079663 -1.36176581 1.98075027 0 0 Z " fill="#131314" transform="translate(195,186)"/>
<path d="M0 0 C0.66 1.32 1.32 2.64 2 4 C1.34 4.66 0.68 5.32 0 6 C0.99 7.485 0.99 7.485 2 9 C1.625 11.1875 1.625 11.1875 1 13 C-0.5625 11.5 -0.5625 11.5 -2 9 C-2.01639538 6.18545988 -1.54914879 3.79150637 -1 1 C-0.67 0.67 -0.34 0.34 0 0 Z " fill="#010102" transform="translate(212,172)"/>
<path d="M0 0 C0.99 0 1.98 0 3 0 C2.1875 2.4375 2.1875 2.4375 1 5 C0.01 5.33 -0.98 5.66 -2 6 C-2 2 -2 2 0 0 Z " fill="#090A09" transform="translate(546,197)"/>
<path d="M0 0 C1.5 1.375 1.5 1.375 3 3 C3 3.66 3 4.32 3 5 C3.639375 5.268125 4.27875 5.53625 4.9375 5.8125 C7 7 7 7 8 10 C7.34 10 6.68 10 6 10 C6 9.34 6 8.68 6 8 C5.401875 7.773125 4.80375 7.54625 4.1875 7.3125 C1.43648112 5.66188867 0.47515363 3.8027919 -1 1 C-0.67 0.67 -0.34 0.34 0 0 Z " fill="#030302" transform="translate(127,186)"/>
<path d="M0 0 C0.66 0.66 1.32 1.32 2 2 C-1.465 4.97 -1.465 4.97 -5 8 C-5.66 7.67 -6.32 7.34 -7 7 C-4.66666667 4.66666667 -2.33333333 2.33333333 0 0 Z " fill="#030202" transform="translate(137,121)"/>
<path d="M0 0 C3.37503669 1.1858237 5.64722731 2.27573689 8 5 C5.125 4.75 5.125 4.75 2 4 C0.625 1.9375 0.625 1.9375 0 0 Z " fill="#040404" transform="translate(135,196)"/>
<path d="M0 0 C0.99 0.33 1.98 0.66 3 1 C1.8141763 4.37503669 0.72426311 6.64722731 -2 9 C-2 7.35 -2 5.7 -2 4 C-1.34 4 -0.68 4 0 4 C0 2.68 0 1.36 0 0 Z " fill="#100F0F" transform="translate(676,155)"/>
<path d="M0 0 C-0.33 0.99 -0.66 1.98 -1 3 C-1.66 3 -2.32 3 -3 3 C-3.33 4.32 -3.66 5.64 -4 7 C-4.66 7 -5.32 7 -6 7 C-5.6875 4.625 -5.6875 4.625 -5 2 C-2 0 -2 0 0 0 Z " fill="#050404" transform="translate(448,151)"/>
<path d="M0 0 C2.475 0.495 2.475 0.495 5 1 C5.625 4.375 5.625 4.375 6 8 C5.34 8.66 4.68 9.32 4 10 C3.896875 8.906875 3.79375 7.81375 3.6875 6.6875 C3.02692273 3.14440371 2.7972908 2.06756277 0 0 Z " fill="#0B0B0A" transform="translate(377,148)"/>
<path d="M0 0 C0.99 0.33 1.98 0.66 3 1 C3 2.65 3 4.3 3 6 C1.68 5.67 0.36 5.34 -1 5 C-0.67 3.35 -0.34 1.7 0 0 Z " fill="#101012" transform="translate(141,201)"/>
<path d="M0 0 C2 3 2 3 1.625 5.6875 C1.41875 6.450625 1.2125 7.21375 1 8 C0.01 8 -0.98 8 -2 8 C-1.34 5.36 -0.68 2.72 0 0 Z " fill="#0E0F0E" transform="translate(479,197)"/>
<path d="M0 0 C1 3 1 3 -0.4375 6.1875 C-1.2109375 7.5796875 -1.2109375 7.5796875 -2 9 C-2.66 8.34 -3.32 7.68 -4 7 C-2.68 4.69 -1.36 2.38 0 0 Z " fill="#010101" transform="translate(675,165)"/>
<path d="M0 0 C2.31 0 4.62 0 7 0 C6.67 1.65 6.34 3.3 6 5 C3.98079663 3.69593116 1.98075027 2.36176581 0 1 C0 0.67 0 0.34 0 0 Z " fill="#141312" transform="translate(596,116)"/>
<path d="M0 0 C0.33 0 0.66 0 1 0 C1 2.64 1 5.28 1 8 C0.67 8 0.34 8 0 8 C0 5.36 0 2.72 0 0 Z " fill="#000000" transform="translate(349,176)"/>
<path d="M0 0 C1 4 1 4 1 4 Z " fill="#000000" transform="translate(349,171)"/>
<path d="M0 0 C0.66 0.66 1.32 1.32 2 2 C1.34 2 0.68 2 0 2 C0 1.34 0 0.68 0 0 Z " fill="#000000" transform="translate(383,149)"/>
<path d="" fill="#000000" transform="translate(0,0)"/>
<path d="" fill="#000000" transform="translate(0,0)"/>
<path d="" fill="#000000" transform="translate(0,0)"/>
<path d="" fill="#000000" transform="translate(0,0)"/>
<path d="" fill="#000000" transform="translate(0,0)"/>
<path d="" fill="#000000" transform="translate(0,0)"/>
<path d="" fill="#000000" transform="translate(0,0)"/>
<path d="" fill="#000000" transform="translate(0,0)"/>
<path d="" fill="#000000" transform="translate(0,0)"/>
<path d="" fill="#000000" transform="translate(0,0)"/>
</svg>
