<?xml version="1.0" encoding="UTF-8"?>
<!DOCTYPE svg PUBLIC "-//W3C//DTD SVG 1.1//EN" "http://www.w3.org/Graphics/SVG/1.1/DTD/svg11.dtd">
<svg xmlns="http://www.w3.org/2000/svg" version="1.1" width="455px" height="574px" style="shape-rendering:geometricPrecision; text-rendering:geometricPrecision; image-rendering:optimizeQuality; fill-rule:evenodd; clip-rule:evenodd" xmlns:xlink="http://www.w3.org/1999/xlink">
<g><path style="opacity:1" fill="#2b6aba" d="M 432.5,170.5 C 432.232,172.099 432.566,173.432 433.5,174.5C 434.744,184.123 435.411,193.79 435.5,203.5C 435.5,322.833 435.5,442.167 435.5,561.5C 408.167,561.5 380.833,561.5 353.5,561.5C 371.623,530.629 369.123,501.629 346,474.5C 335.549,463.709 324.215,454.042 312,445.5C 311.667,365.833 311.333,286.167 311,206.5C 304.65,171.802 284.816,148.302 251.5,136C 213.346,126.94 182.179,137.773 158,168.5C 149.349,180.475 144.015,193.808 142,208.5C 141.833,253.17 141.333,297.837 140.5,342.5C 126.885,347.624 115.718,355.957 107,367.5C 102.256,376.662 102.589,385.662 108,394.5C 117.742,405.569 129.242,414.402 142.5,421C 162.997,430.41 182.664,441.077 201.5,453C 220.759,467.62 222.592,484.12 207,502.5C 189.391,518.229 169.224,529.729 146.5,537C 104.957,551.09 62.2907,559.257 18.5,561.5C 18.3333,436.5 18.5,311.5 19,186.5C 30.5207,115.924 67.6874,63.7572 130.5,30C 191.04,1.50818 252.373,0.174846 314.5,26C 376.883,55.227 416.217,103.394 432.5,170.5 Z"/></g>
<g><path style="opacity:1" fill="#f0eee9" d="M 435.5,161.5 C 435.567,163.401 435.233,165.234 434.5,167C 435.167,167.667 435.833,168.333 436.5,169C 435.486,171.029 434.153,171.529 432.5,170.5C 416.217,103.394 376.883,55.227 314.5,26C 252.373,0.174846 191.04,1.50818 130.5,30C 67.6874,63.7572 30.5207,115.924 19,186.5C 18.5,311.5 18.3333,436.5 18.5,561.5C 62.2907,559.257 104.957,551.09 146.5,537C 169.224,529.729 189.391,518.229 207,502.5C 222.592,484.12 220.759,467.62 201.5,453C 182.664,441.077 162.997,430.41 142.5,421C 129.242,414.402 117.742,405.569 108,394.5C 102.589,385.662 102.256,376.662 107,367.5C 115.718,355.957 126.885,347.624 140.5,342.5C 141.333,297.837 141.833,253.17 142,208.5C 144.015,193.808 149.349,180.475 158,168.5C 182.179,137.773 213.346,126.94 251.5,136C 284.816,148.302 304.65,171.802 311,206.5C 311.333,286.167 311.667,365.833 312,445.5C 324.215,454.042 335.549,463.709 346,474.5C 369.123,501.629 371.623,530.629 353.5,561.5C 380.995,562.498 408.662,562.831 436.5,562.5C 436.5,554.167 436.5,545.833 436.5,537.5C 437.333,497.669 437.833,457.669 438,417.5C 438.333,428.5 438.667,439.5 439,450.5C 439.417,449.244 440.25,448.577 441.5,448.5C 441.785,452.025 441.119,455.358 439.5,458.5C 439.667,459.167 439.833,459.833 440,460.5C 440.654,459.304 441.154,459.304 441.5,460.5C 441.156,478.994 441.156,497.494 441.5,516C 440.193,521.254 439.526,526.754 439.5,532.5C 439.968,541.682 440.634,550.682 441.5,559.5C 437.976,565.19 432.809,568.524 426,569.5C 423.268,569.385 420.768,568.552 418.5,567C 403.833,566.333 389.167,566.333 374.5,567C 367.75,570.443 361.084,570.276 354.5,566.5C 352.102,564.37 350.768,561.703 350.5,558.5C 354.226,549.714 357.393,540.714 360,531.5C 360.667,525.167 360.667,518.833 360,512.5C 359.085,511.672 358.419,510.672 358,509.5C 357.667,506.833 357.333,504.167 357,501.5C 351.021,490.517 343.854,480.35 335.5,471C 327.114,464.28 318.447,457.947 309.5,452C 307.981,450.649 306.648,449.149 305.5,447.5C 302.045,445.828 298.711,444.161 295.5,442.5C 295.917,441.876 296.584,441.543 297.5,441.5C 299.405,442.065 301.071,443.065 302.5,444.5C 304.51,443.651 306.177,444.318 307.5,446.5C 308.086,446.291 308.586,445.957 309,445.5C 309.167,443.5 309.333,441.5 309.5,439.5C 309.493,377.906 309.493,316.406 309.5,255C 309.333,251.5 309.167,248 309,244.5C 307.984,243.366 307.317,243.699 307,245.5C 306.536,244.906 306.369,244.239 306.5,243.5C 306.667,232.495 306.5,221.495 306,210.5C 304.956,209.377 304.29,208.044 304,206.5C 303.894,200.269 302.894,194.269 301,188.5C 289.586,166.093 272.086,150.26 248.5,141C 241.492,140.773 234.659,139.94 228,138.5C 222.004,139.868 215.837,140.701 209.5,141C 200.869,144.936 192.202,148.936 183.5,153C 173.147,162.008 164.314,172.174 157,183.5C 154.358,190.073 152.025,196.74 150,203.5C 149.667,248.5 149.333,293.5 149,338.5C 148.076,342.69 145.91,346.024 142.5,348.5C 136.928,352.784 130.928,356.284 124.5,359C 121.333,362.167 118.167,365.333 115,368.5C 113.525,371.921 111.859,375.254 110,378.5C 108.814,383.368 109.814,387.702 113,391.5C 116.833,395.333 120.667,399.167 124.5,403C 129.618,406.19 134.618,409.523 139.5,413C 156.467,421.484 173.467,429.817 190.5,438C 197.714,442.767 204.714,447.767 211.5,453C 214.258,458.416 217.758,463.25 222,467.5C 222.667,476.167 222.667,484.833 222,493.5C 213.5,506 203,516.5 190.5,525C 176.872,531.651 163.205,537.984 149.5,544C 135.78,547.674 122.113,551.341 108.5,555C 107.672,555.915 106.672,556.581 105.5,557C 92.5874,558.418 79.9207,560.752 67.5,564C 55.6841,565.905 43.6841,566.905 31.5,567C 24.1508,570.118 17.9842,568.285 13,561.5C 12.3333,437.833 12.3333,314.167 13,190.5C 24.4042,113.584 64.9042,57.4173 134.5,22C 145.956,18.4198 157.289,14.4198 168.5,10C 175.966,7.61509 183.633,5.94842 191.5,5C 270.006,-6.2759 336.506,16.8908 391,74.5C 400.388,86.8887 409.388,99.5554 418,112.5C 423.003,124.178 428.003,135.845 433,147.5C 433.557,152.256 434.39,156.923 435.5,161.5 Z"/></g>
<g><path style="opacity:1" fill="#fbebe9" d="M 435.5,161.5 C 436.117,161.611 436.617,161.944 437,162.5C 437.759,166.967 438.759,171.301 440,175.5C 440.039,182.336 440.706,189.003 442,195.5C 442.833,317.001 442.666,438.334 441.5,559.5C 440.634,550.682 439.968,541.682 439.5,532.5C 439.526,526.754 440.193,521.254 441.5,516C 441.156,497.494 441.156,478.994 441.5,460.5C 441.154,459.304 440.654,459.304 440,460.5C 439.833,459.833 439.667,459.167 439.5,458.5C 441.119,455.358 441.785,452.025 441.5,448.5C 441.665,445.482 441.498,442.482 441,439.5C 439.982,440.706 439.482,440.373 439.5,438.5C 440.167,437.5 440.833,436.5 441.5,435.5C 440.833,434.5 440.167,433.5 439.5,432.5C 440.167,431.5 440.833,430.5 441.5,429.5C 440.833,428.5 440.167,427.5 439.5,426.5C 439.919,425.328 440.585,424.328 441.5,423.5C 441.112,415.359 440.945,407.026 441,398.5C 440.18,405.118 439.68,405.118 439.5,398.5C 440.849,393.796 441.516,388.963 441.5,384C 441.308,380.711 440.641,377.544 439.5,374.5C 440.167,373.5 440.833,372.5 441.5,371.5C 441.061,369.896 440.394,368.396 439.5,367C 442.203,363.901 442.036,361.068 439,358.5C 438.667,360.167 438.333,361.833 438,363.5C 437.182,360.773 437.348,358.106 438.5,355.5C 439.478,355.977 440.311,356.643 441,357.5C 441.167,353.333 441.333,349.167 441.5,345C 440.896,337.445 440.896,329.945 441.5,322.5C 441.154,321.304 440.654,321.304 440,322.5C 439.333,321.167 439.333,319.833 440,318.5C 440.333,318.833 440.667,319.167 441,319.5C 441.167,317.833 441.333,316.167 441.5,314.5C 440.889,302.003 440.889,289.503 441.5,277C 440.484,276.481 439.818,275.647 439.5,274.5C 441.079,274.172 441.746,272.672 441.5,270C 438.879,262.841 438.879,255.674 441.5,248.5C 440.222,235.004 440.222,221.504 441.5,208C 441.345,204.813 441.011,201.646 440.5,198.5C 438.575,196.177 437.242,193.51 436.5,190.5C 436.667,189.167 436.833,187.833 437,186.5C 437.82,193.118 438.32,193.118 438.5,186.5C 438.333,184.833 438.167,183.167 438,181.5C 437.667,182.5 437.333,183.5 437,184.5C 436.833,183.833 436.667,183.167 436.5,182.5C 438.252,178.594 437.586,175.26 434.5,172.5C 433.702,172.957 433.369,173.624 433.5,174.5C 432.566,173.432 432.232,172.099 432.5,170.5C 434.153,171.529 435.486,171.029 436.5,169C 435.833,168.333 435.167,167.667 434.5,167C 435.233,165.234 435.567,163.401 435.5,161.5 Z"/></g>
<g><path style="opacity:1" fill="#112551" d="M 297.5,223.5 C 297.833,294.669 297.499,365.669 296.5,436.5C 296.167,436.5 295.833,436.5 295.5,436.5C 275.813,425.156 255.479,415.156 234.5,406.5C 234.5,381.833 234.5,357.167 234.5,332.5C 234.333,296.165 234.5,259.832 235,223.5C 241.675,205.468 254.508,197.301 273.5,199C 286.429,202.429 294.429,210.595 297.5,223.5 Z"/></g>
<g><path style="opacity:1" fill="#f8f6e7" d="M 441.5,448.5 C 440.25,448.577 439.417,449.244 439,450.5C 438.667,439.5 438.333,428.5 438,417.5C 437.833,457.669 437.333,497.669 436.5,537.5C 436.833,425.999 436.499,314.665 435.5,203.5C 435.411,193.79 434.744,184.123 433.5,174.5C 433.369,173.624 433.702,172.957 434.5,172.5C 437.586,175.26 438.252,178.594 436.5,182.5C 436.667,183.167 436.833,183.833 437,184.5C 437.333,183.5 437.667,182.5 438,181.5C 438.167,183.167 438.333,184.833 438.5,186.5C 438.32,193.118 437.82,193.118 437,186.5C 436.833,187.833 436.667,189.167 436.5,190.5C 437.242,193.51 438.575,196.177 440.5,198.5C 441.011,201.646 441.345,204.813 441.5,208C 440.222,221.504 440.222,235.004 441.5,248.5C 438.879,255.674 438.879,262.841 441.5,270C 441.746,272.672 441.079,274.172 439.5,274.5C 439.818,275.647 440.484,276.481 441.5,277C 440.889,289.503 440.889,302.003 441.5,314.5C 441.333,316.167 441.167,317.833 441,319.5C 440.667,319.167 440.333,318.833 440,318.5C 439.333,319.833 439.333,321.167 440,322.5C 440.654,321.304 441.154,321.304 441.5,322.5C 440.896,329.945 440.896,337.445 441.5,345C 441.333,349.167 441.167,353.333 441,357.5C 440.311,356.643 439.478,355.977 438.5,355.5C 437.348,358.106 437.182,360.773 438,363.5C 438.333,361.833 438.667,360.167 439,358.5C 442.036,361.068 442.203,363.901 439.5,367C 440.394,368.396 441.061,369.896 441.5,371.5C 440.833,372.5 440.167,373.5 439.5,374.5C 440.641,377.544 441.308,380.711 441.5,384C 441.516,388.963 440.849,393.796 439.5,398.5C 439.68,405.118 440.18,405.118 441,398.5C 440.945,407.026 441.112,415.359 441.5,423.5C 440.585,424.328 439.919,425.328 439.5,426.5C 440.167,427.5 440.833,428.5 441.5,429.5C 440.833,430.5 440.167,431.5 439.5,432.5C 440.167,433.5 440.833,434.5 441.5,435.5C 440.833,436.5 440.167,437.5 439.5,438.5C 439.482,440.373 439.982,440.706 441,439.5C 441.498,442.482 441.665,445.482 441.5,448.5 Z"/></g>
<g><path style="opacity:1" fill="#f8f2e7" d="M 306.5,243.5 C 306.369,244.239 306.536,244.906 307,245.5C 307.317,243.699 307.984,243.366 309,244.5C 309.167,248 309.333,251.5 309.5,255C 309.493,316.406 309.493,377.906 309.5,439.5C 309.333,441.5 309.167,443.5 309,445.5C 308.586,445.957 308.086,446.291 307.5,446.5C 306.177,444.318 304.51,443.651 302.5,444.5C 301.071,443.065 299.405,442.065 297.5,441.5C 296.584,441.543 295.917,441.876 295.5,442.5C 292.071,440.829 288.738,439.162 285.5,437.5C 285.611,436.883 285.944,436.383 286.5,436C 290.443,434.579 293.109,435.746 294.5,439.5C 295.386,438.675 295.719,437.675 295.5,436.5C 295.833,436.5 296.167,436.5 296.5,436.5C 296.56,437.043 296.893,437.376 297.5,437.5C 298.497,430.197 298.831,422.863 298.5,415.5C 299.333,361.668 299.833,307.668 300,253.5C 300.125,250.735 300.958,249.068 302.5,248.5C 302.32,247.446 301.987,246.446 301.5,245.5C 302.472,245.407 303.472,245.074 304.5,244.5C 305.167,244.167 305.833,243.833 306.5,243.5 Z"/></g>
<g><path style="opacity:1" fill="#c9d5e0" d="M 435.5,203.5 C 436.499,314.665 436.833,425.999 436.5,537.5C 436.5,545.833 436.5,554.167 436.5,562.5C 408.662,562.831 380.995,562.498 353.5,561.5C 380.833,561.5 408.167,561.5 435.5,561.5C 435.5,442.167 435.5,322.833 435.5,203.5 Z"/></g>
<g><path style="opacity:1" fill="#c2c6cc" d="M 297.5,223.5 C 298.499,287.331 298.832,351.331 298.5,415.5C 298.831,422.863 298.497,430.197 297.5,437.5C 296.893,437.376 296.56,437.043 296.5,436.5C 297.499,365.669 297.833,294.669 297.5,223.5 Z"/></g>
<g><path style="opacity:1" fill="#f5f2eb" d="M 304.5,244.5 C 303.472,245.074 302.472,245.407 301.5,245.5C 301.987,246.446 302.32,247.446 302.5,248.5C 300.958,249.068 300.125,250.735 300,253.5C 299.833,307.668 299.333,361.668 298.5,415.5C 298.832,351.331 298.499,287.331 297.5,223.5C 294.429,210.595 286.429,202.429 273.5,199C 254.508,197.301 241.675,205.468 235,223.5C 234.5,259.832 234.333,296.165 234.5,332.5C 219.235,333.42 204.568,336.92 190.5,343C 184.728,345.634 179.561,349.134 175,353.5C 168.88,361.368 169.213,369.034 176,376.5C 193.879,389.524 213.379,399.524 234.5,406.5C 255.479,415.156 275.813,425.156 295.5,436.5C 295.719,437.675 295.386,438.675 294.5,439.5C 293.109,435.746 290.443,434.579 286.5,436C 285.944,436.383 285.611,436.883 285.5,437.5C 272.706,430.695 259.706,424.195 246.5,418C 244.5,417.667 242.5,417.333 240.5,417C 229.347,411.923 218.347,406.59 207.5,401C 201.988,399.582 196.655,397.582 191.5,395C 184.994,390.492 178.494,385.992 172,381.5C 168.541,376.417 166.041,370.917 164.5,365C 166.648,357.221 170.648,350.554 176.5,345C 179.412,343.76 182.079,342.094 184.5,340C 198.716,334.602 213.216,330.102 228,326.5C 228.216,324.616 228.883,322.949 230,321.5C 230.333,287.833 230.667,254.167 231,220.5C 232.441,213.401 235.941,207.568 241.5,203C 244.919,199.625 248.919,197.292 253.5,196C 258.487,195.32 263.321,194.153 268,192.5C 274.723,194.043 281.223,196.209 287.5,199C 302.604,210.521 308.271,225.688 304.5,244.5 Z"/></g>
<g><path style="opacity:1" fill="#2d6ab9" d="M 234.5,332.5 C 234.5,357.167 234.5,381.833 234.5,406.5C 213.379,399.524 193.879,389.524 176,376.5C 169.213,369.034 168.88,361.368 175,353.5C 179.561,349.134 184.728,345.634 190.5,343C 204.568,336.92 219.235,333.42 234.5,332.5 Z"/></g>
</svg>
